<?xml version="1.0" encoding="utf-8"?>
<!-- Generator: Adobe Illustrator 19.2.0, SVG Export Plug-In . SVG Version: 6.00 Build 0)  -->
<svg version="1.1" id="Layer_1" xmlns="http://www.w3.org/2000/svg" xmlns:xlink="http://www.w3.org/1999/xlink" x="0px" y="0px"
	 viewBox="0 0 70.3 64" style="enable-background:new 0 0 70.3 64;" xml:space="preserve">
<g>
	<path d="M60.5,64L60.5,64c-0.1,0-0.3,0-0.4,0c-0.8-0.1-1.3-0.9-1.3-1.7v-2.6H45.3c-1.4,0-2.6-1.2-2.6-2.6v-6.1
		c0-1.4,1.2-2.6,2.6-2.6h13.4v-2.6c0-0.7,0.5-1.5,1.3-1.7c0.8-0.1,1.6,0.1,2.2,0.7l7.3,7.3c0.5,0.5,0.8,1.1,0.8,1.8
		s-0.3,1.3-0.8,1.8l-7.3,7.3C61.8,63.8,61.1,64,60.5,64z M45.3,50.4c-0.4,0-0.7,0.3-0.7,0.7v6.1c0,0.4,0.3,0.7,0.7,0.7h13.8
		c0.8,0,1.5,0.7,1.5,1.5v2.7c0.1,0,0.2-0.1,0.3-0.2l7.3-7.3c0.1-0.1,0.2-0.3,0.2-0.5c0-0.2-0.1-0.4-0.2-0.5l-7.3-7.3
		c-0.1-0.1-0.2-0.1-0.3-0.2v2.7c0,0.8-0.7,1.5-1.5,1.5H45.3z"/>
	<path d="M9.9,19.8c-0.7,0-1.3-0.3-1.8-0.7l-7.3-7.3C0.3,11.3,0,10.6,0,9.9s0.3-1.3,0.8-1.8l7.3-7.3C8.7,0.2,9.5-0.1,10.3,0
		c0.8,0.1,1.3,0.9,1.3,1.7v2.6H25c1.4,0,2.6,1.2,2.6,2.6V13c0,1.4-1.2,2.6-2.6,2.6H11.6v2.6c0,0.7-0.5,1.5-1.3,1.7
		C10.2,19.8,10,19.8,9.9,19.8z M9.7,1.9C9.6,1.9,9.5,2,9.4,2.1L2.1,9.4C2,9.6,1.9,9.7,1.9,9.9c0,0.2,0.1,0.4,0.2,0.5l7.3,7.3
		c0.1,0.1,0.2,0.1,0.3,0.2v-2.7c0-0.8,0.7-1.5,1.5-1.5H25c0.4,0,0.7-0.3,0.7-0.7V6.8c0-0.4-0.3-0.7-0.7-0.7H11.2
		c-0.8,0-1.5-0.7-1.5-1.5L9.7,1.9L9.7,1.9z"/>
	<path d="M33.9,57.2H4.5c-0.5,0-0.9-0.2-1.1-0.6c-0.2-0.4-0.2-0.9,0.1-1.3L34.8,9.8c0.3-0.5,1-0.9,1.6-0.9h29.4
		c0.5,0,0.9,0.2,1.1,0.6s0.2,0.9-0.1,1.3L35.6,56.4C35.2,56.9,34.5,57.2,33.9,57.2z M5.7,55.3h28.2c0,0,0.1,0,0.1-0.1l30.6-44.4
		H36.4c0,0-0.1,0-0.1,0.1L5.7,55.3z"/>
</g>
</svg>
