<?xml version="1.0" encoding="utf-8"?>
<!-- Generator: Adobe Illustrator 19.2.0, SVG Export Plug-In . SVG Version: 6.00 Build 0)  -->
<svg version="1.1" id="Layer_1" xmlns="http://www.w3.org/2000/svg" xmlns:xlink="http://www.w3.org/1999/xlink" x="0px" y="0px"
	 viewBox="-535.6 557.2 73.3 87.6" style="enable-background:new -535.6 557.2 73.3 87.6;" xml:space="preserve">
<g transform="translate(0,-952.36216)">
	<path d="M-504.6,1526.1l-11.3,5.7v14.2l11.3,5.7l11.3-5.7v-14.2L-504.6,1526.1z M-504.6,1531.3l3.6,1.8v3.8
		c-1.2,0.6-2.4,1.2-3.6,1.8l-3.6-1.8v-3.8L-504.6,1531.3z M-504.6,1533.5l-1.6,0.8v1.3l1.6,0.8l1.6-0.8v-1.3L-504.6,1533.5z
		 M-510.8,1538.8h2v3.3l4.2,2.1l4.2-2.1v-3.3h2v4.5l-6.2,3.1l-6.2-3.1V1538.8z"/>
	<path d="M-520.5,1557.4c0,0.7,0,1.3,0,2h31.7v-2H-520.5z"/>
	<path d="M-520.5,1565.2c0,0.7,0,1.3,0,2h27.2c0.7-0.7,1.4-1.4,2.2-2H-520.5z"/>
	<path d="M-535.6,1509.6v1v81h40.7c-0.5-0.6-0.9-1.3-1.3-2h-37.5v-78h58v49.8c0.7,0.1,1.3,0.3,2,0.5v-52.3L-535.6,1509.6z"/>
	<path d="M-520.5,1573c0,0.7,0,1.3,0,2h22.8c0.2-0.7,0.4-1.3,0.7-2H-520.5z"/>
	<path d="M-479.1,1563.6c-9.3,0-16.8,7.5-16.8,16.8s7.5,16.8,16.8,16.8s16.8-7.5,16.8-16.8S-469.9,1563.6-479.1,1563.6
		L-479.1,1563.6z M-479.1,1565.6c8.2,0,14.8,6.6,14.8,14.8s-6.6,14.8-14.8,14.8s-14.8-6.6-14.8-14.8S-487.3,1565.6-479.1,1565.6
		L-479.1,1565.6z"/>
	<path d="M-475,1576l-1.4,1.4l2.9,2.9l-2.9,2.9l1.4,1.4l4.4-4.3L-475,1576z"/>
	<path d="M-478.3,1573.7l-3.6,12.7l1.9,0.6l3.6-12.7L-478.3,1573.7z"/>
	<path d="M-483.3,1576l-4.4,4.3l4.4,4.3l1.4-1.4l-2.9-2.9l2.9-2.9L-483.3,1576z"/>
</g>
</svg>
