<?xml version="1.0" encoding="utf-8"?>
<!-- Generator: Adobe Illustrator 19.2.0, SVG Export Plug-In . SVG Version: 6.00 Build 0)  -->
<svg version="1.1" id="Layer_1" xmlns="http://www.w3.org/2000/svg" xmlns:xlink="http://www.w3.org/1999/xlink" x="0px" y="0px"
	 viewBox="0 0 81.1 75.8" style="enable-background:new 0 0 81.1 75.8;" xml:space="preserve">
<style type="text/css">
	.st0{fill-rule:evenodd;clip-rule:evenodd;}
</style>
<g>
	<g>
		<path d="M4.2,32.1v4.1h6.8v3.3H4.2v3.9h6.8v3.3H0V28.8h10.9v3.3H4.2z"/>
		<path d="M33.3,46.7h-4V35.6l-3.9,11.1h-3.1l-4-11.1v11.1h-4V28.8H19l4.8,12.5l4.7-12.5h4.7V46.7z"/>
		<path d="M36.7,28.8h7.5c4,0,6.5,3,6.5,6.5c0,3.5-2.6,6.5-6.5,6.5h-3.4v5h-4.2V28.8z M46.6,35.3c0-1.7-1.1-3.1-2.9-3.1h-2.8v6.2
			h2.8C45.5,38.4,46.6,37,46.6,35.3z"/>
		<path d="M47.8,42.9c1.2,0,2,0.9,2,2c0,1.1-0.9,2-2,2s-2-0.9-2-2C45.7,43.8,46.6,42.9,47.8,42.9z"/>
		<path d="M57.2,32.1l0,4.1l6.8,0l0,3.3l-6.8,0l0,3.9l6.8,0l0,3.3l-10.9,0L53,28.8l10.9,0l0,3.3L57.2,32.1z"/>
		<path d="M76.5,28.8h4.6l-5.3,9l5.3,9h-4.6L73.3,41l-3.1,5.8h-4.6l5.3-9l-5.3-9h4.6l3.1,5.8L76.5,28.8z"/>
	</g>
	<path class="st0" d="M40.6,75.8l-5.1-12.3l-9.4,9.4l0-13.3l-12.3,5.1l5.1-12.3l-13.3,0l1.9-1.9l20.5,0l0,6.3l5.8-2.4l2.4,5.8
		l4.4-4.4l4.4,4.4l2.4-5.8l5.8,2.4v-6.2l20.5,0l1.9,1.9l-13.3,0l5.1,12.3l-12.3-5.1l0,13.3l-9.4-9.4L40.6,75.8z M40.6,70.8l3.6-8.8
		l-3.6-3.6L37,62L40.6,70.8z M28,68.3l6.7-6.7l-2-4.8l-4.7,2L28,68.3z M53.2,68.3l0-9.5l-4.7-2l-2,4.8L53.2,68.3z M17.3,61.2
		l8.8-3.6l0-5.1H21L17.3,61.2z M63.9,61.2l-3.6-8.8h-5.1v5.1L63.9,61.2z M28,25.3l-20.5,0l-1.9-1.9l13.3,0l-5.1-12.3l12.3,5.1
		l0-13.3l9.4,9.4L40.6,0l5.1,12.3l9.4-9.4l0,13.3l12.3-5.1l-5.1,12.3l13.3,0l-1.9,1.9l-20.5,0l0-6.2l-5.8,2.4L45,15.7l-4.4,4.4
		l-4.4-4.4l-2.4,5.8L28,19.1L28,25.3z M26.1,23.4l0-5.1l-8.8-3.7l3.7,8.8L26.1,23.4z M55.1,23.4l5.1,0l3.6-8.8l-8.8,3.7V23.4z
		 M32.8,19l2-4.7L28,7.5l0,9.5L32.8,19z M48.4,19l4.7-2l0-9.5l-6.7,6.7L48.4,19z M40.6,17.4l3.6-3.6L40.6,5L37,13.8L40.6,17.4z"/>
</g>
</svg>
