<?xml version="1.0" encoding="utf-8"?>
<!-- Generator: Adobe Illustrator 19.2.0, SVG Export Plug-In . SVG Version: 6.00 Build 0)  -->
<svg version="1.1" id="Layer_1" xmlns="http://www.w3.org/2000/svg" xmlns:xlink="http://www.w3.org/1999/xlink" x="0px" y="0px"
	 viewBox="-567.3 577 32.5 48" style="enable-background:new -567.3 577 32.5 48;" xml:space="preserve">
<g>
	<g>
		<path d="M-566.3,625c-0.6,0-1-0.4-1-1v-46c0-0.6,0.4-1,1-1s1,0.4,1,1v46C-565.3,624.6-565.7,625-566.3,625z"/>
	</g>
	<g>
		<path d="M-559.8,604.5c-2.3,0-4.7-0.7-7.1-2.8c-0.2-0.2-0.3-0.5-0.3-0.8v-19.9c0-0.4,0.2-0.7,0.6-0.9c0.4-0.2,0.8-0.1,1.1,0.2
			c4.6,4,9.3,2,14.2-0.2c5-2.2,10.8-4.6,16.3,0.2c0.2,0.2,0.3,0.5,0.3,0.8V601c0,0.4-0.2,0.7-0.6,0.9c-0.4,0.2-0.8,0.1-1.1-0.2
			c-4.6-4-9.3-2-14.2,0.2C-553.5,603.2-556.6,604.5-559.8,604.5z M-565.3,600.5c4.5,3.6,9.1,1.6,13.9-0.4c4.5-2,9.6-4.2,14.7-1.1
			v-17.5c-4.5-3.6-9.1-1.6-13.9,0.4c-4.5,2-9.6,4.2-14.7,1.1V600.5z"/>
	</g>
</g>
</svg>
