<?xml version="1.0" encoding="utf-8"?>
<!-- Generator: Adobe Illustrator 19.2.0, SVG Export Plug-In . SVG Version: 6.00 Build 0)  -->
<svg fill="#989590" version="1.1" id="Layer_1" xmlns="http://www.w3.org/2000/svg" xmlns:xlink="http://www.w3.org/1999/xlink" x="0px" y="0px"
	 viewBox="0 0 372 319" style="enable-background:new 0 0 372 319;" xml:space="preserve">
<g>
	<path d="M256.6,0.2c1.3,12.9,3.1,25.7,3.9,38.7c0.9,13.8,0.8,27.6,1.3,41.4c0.1,2.4,0.8,4.9,1.8,7.1c1.7,3.8,3.7,7.5,6,11
		c6.2,9.4,9,19.6,7.9,30.8c-0.4,3.7,0.5,6.5,4,8.9c1.8,1.3,2.9,4.8,3,7.3c0.3,11.2,0,22.3,0.3,33.5c0.1,4.2,0.8,8.6,2,12.7
		c3.1,10.2,6.5,20.3,10.1,30.3c0.6,1.7,2.4,3.1,3.7,4.6c1.3-1.6,3.2-3.1,3.8-4.9c5.8-17.7,11.4-35.5,16.9-53.3
		c1.4-4.4,3.6-6.3,8.6-6.1c11.5,0.5,23,0.1,34.5,0.2c2.3,0,4.5,0.3,7.8,0.6c-1.5,3.6-2.6,6.4-3.9,9.2c-12.6,26.6-25,53.4-37.9,79.8
		c-7,14.3-8.4,29.2-7.4,44.7c0.4,6,0,12,0,18c0,3.1-1.1,4.4-4.4,4.4c-12.5-0.1-25-0.2-37.5,0c-4.1,0.1-5.1-1.7-5-5.4
		c0.2-7.5-0.3-15,0.3-22.5c1-14.2-1.7-27.4-7.8-40.1c-10.2-21.3-20.1-42.7-30-64.1c-0.6,0.1-1.2,0.3-1.8,0.4c0,1.8,0,3.7,0,5.5
		c0,39.5,0,79,0,118.5c0,7.7,0,7.7-7.5,7.7c-6.8,0-13.7,0.2-20.5-0.1c-2-0.1-4.7-1.2-5.7-2.7c-16.6-23.5-33-47.2-49.6-70.8
		c-1-1.4-2.8-2.3-4.3-3.4c-0.9,1.8-2.5,3.6-2.6,5.3c-0.1,21.7,0,43.3,0,65c0,6.7,0,6.7-6.6,6.7c-11,0-21.9,0-33.5,0
		c-0.1-2.1-0.3-3.9-0.3-5.7c0-48.5,0.1-97-0.1-145.5c0-4.5,1.4-5.7,5.7-5.6c9.3,0.2,18.7,0.1,28,0c3.5,0,5.8,1.3,7.7,4.2
		c14.2,21.4,28.5,42.6,42.8,63.9c0.6,0.8,1,1.8,1.8,2.4c0.8,0.7,2.4,1.6,2.9,1.3c0.9-0.6,1.8-2,1.8-3.1c0.1-3.2-0.3-6.3-0.3-9.5
		c-0.1-17.8,0-35.7-0.3-53.5c-0.1-4.8,1.8-6,6.2-5.8c6.2,0.3,12.3-0.1,18.5,0.1c3.3,0.1,4.4-1.2,4.3-4.4c-0.1-5-0.3-10,0.1-15
		c0.2-2,1.5-4.5,3.1-5.5c2.8-1.9,4.2-4.1,4.3-7.3c0-0.2,0.1-0.3,0.1-0.5c-1.1-15.1,6.5-27.2,13.7-39.3c2.3-3.8,3.1-7.6,3.4-12.2
		c1.3-24.8,3.1-49.5,4.8-74.2c0.1-1.3,0.6-2.5,0.9-3.7C255.8,0.1,256.2,0.1,256.6,0.2z"/>
	<path d="M0.4,159.4c15,0,29.4,0,43.9,0c3.6,0,3.9,2.4,3.9,5.1c0,11.3,0.1,22.7,0.1,34c0,24.7,0,49.3,0,74c0,7.6,0,7.6,7.8,7.7
		c12.8,0.1,25.7,0.1,38.5,0.1c1.8,0,3.6,0,6.1,0c0,9.9,0,19.3,0,28.7c0,9.9,0,9.9-10,9.9c-28.5,0-57,0-85.5,0.1
		c-3.7,0-5.2-0.9-5.2-5c0.1-50,0.1-100,0.1-150C0.1,162.7,0.3,161.4,0.4,159.4z"/>
</g>
</svg>
