<?xml version="1.0" encoding="utf-8"?>
<!-- Generator: Adobe Illustrator 19.2.0, SVG Export Plug-In . SVG Version: 6.00 Build 0)  -->
<svg fill="#eb6911" version="1.1" id="Isolation_Mode" xmlns="http://www.w3.org/2000/svg" xmlns:xlink="http://www.w3.org/1999/xlink" x="0px"
	 y="0px" viewBox="0 0 34.3 6.4" style="enable-background:new 0 0 34.3 6.4;" xml:space="preserve">
<g>
	<g>
		<path d="M11.1,2.1c0-1.1-0.8-2-2-2H6.9H6.8H6.3l0.4,1l1.8,5.2h0.6L8.3,4.1H9l1.3,2.1H11L9.7,4C10.6,3.8,11.1,3,11.1,2.1z M9.1,3.6
			H8.1l-1.1-3h2c0.9,0,1.4,0.7,1.4,1.5C10.5,2.9,9.9,3.6,9.1,3.6z"/>
	</g>
	<g>
		<path d="M3.2,0.5c1.3,0,2,0.7,2.3,1.7H6C5.8,1,4.8,0,3.1,0C1.2,0,0,1.5,0,3.2c0,1.7,1.2,3.2,3.2,3.2c1.4,0,2.5-0.8,2.8-1.9H5.4
			C5.1,5.3,4.2,5.8,3.3,5.8c-1.7,0-2.7-1.2-2.7-2.7C0.6,1.8,1.5,0.5,3.2,0.5z"/>
	</g>
	<g>
		<polygon points="19.7,0.1 17.9,5.2 17.6,6.2 18.2,6.2 20.3,0.1 		"/>
	</g>
	<g>
		<polygon points="16.2,0.1 15.6,0.1 17.4,5.2 17.7,4.4 		"/>
	</g>
	<g>
		<polygon points="13.9,5.7 13.1,3.3 15.7,3.3 15.5,2.7 12.9,2.7 12.1,0.6 14.7,0.6 14.5,0.1 11.6,0.1 11.6,0.1 11.3,0.1 11.7,1 
			13.5,6.2 13.5,6.2 14.1,6.2 16.6,6.2 16.4,5.7 		"/>
	</g>
	<g>
		<polygon points="21.3,0.1 21.7,1 23.4,6.2 24.1,6.2 21.9,0.1 		"/>
	</g>
	<g>
		<polygon points="19.3,6.2 20,6.2 21.4,1.9 21.1,1.1 		"/>
	</g>
	<g>
		<polygon points="34.1,5.7 34.1,5.7 32.2,5.7 31.6,5.7 30.7,3.3 31.4,3.3 33.3,3.3 33.3,3.3 33.1,2.7 33.1,2.7 31.2,2.7 30.5,2.7 
			29.8,0.6 30.6,0.6 32.3,0.6 32.3,0.6 32.2,0.1 32.1,0.1 30.4,0.1 29.3,0.1 29.3,0.1 29,0.1 29,0.1 29.3,1 31.1,6.2 31.1,6.2 
			31.2,6.2 31.7,6.2 31.8,6.2 32.4,6.2 34.3,6.2 34.3,6.2 		"/>
	</g>
	<g>
		<polygon points="29,5.7 27,0.1 26.4,0.1 26.8,1 28.6,6.2 28.6,6.2 29.2,6.2 30.2,6.2 30,5.7 		"/>
	</g>
	<g>
		<polygon points="26.4,5.7 24.5,0.1 23.9,0.1 24.2,1 26,6.2 26.1,6.2 26.6,6.2 27.7,6.2 27.5,5.7 		"/>
	</g>
</g>
</svg>
