<svg xmlns="http://www.w3.org/2000/svg" viewBox="0 0 42.846127 39.626625" height="39.627" width="42.846"><defs><clipPath id="a"><path d="M0 31.7h34.277V0H0v31.7z"/></clipPath></defs><g clip-path="url(#a)" transform="matrix(1.25 0 0 -1.25 0 39.63)"><path d="M9.058 15.864h-.93l-1.054 2.974h1.984c.883 0 1.443-.682 1.443-1.487 0-.804-.56-1.486-1.442-1.486m2.047 1.487c0 1.094-.805 2.03-2.047 2.03H6.29l.364-.962 1.767-5.16h.63l-.73 2.064h.73l1.302-2.064h.69l-1.372 2.16c.883.245 1.435 1.032 1.435 1.933M3.157 18.91c1.26 0 2.03-.718 2.257-1.655h.62C5.79 18.49 4.82 19.45 3.088 19.45 1.172 19.45 0 17.92 0 16.268c0-1.714 1.207-3.2 3.2-3.2 1.427 0 2.502.84 2.835 1.932H5.38c-.29-.806-1.147-1.392-2.11-1.392-1.687 0-2.658 1.225-2.658 2.66 0 1.372.936 2.64 2.545 2.64M19.717 19.38l-1.767-5.16-.365-.963h.593l2.17 6.123h-.63zM16.223 19.38h-.63l1.81-5.11.28.82-1.46 4.29zM13.894 13.8l-.84 2.375h2.614l-.185.542H12.86l-.754 2.132h2.566l-.186.54h-2.88l.002-.01h-.283l.364-.962 1.766-5.16h3.155l-.185.542h-2.53zM21.32 19.38l.364-.962 1.766-5.16h.63l-2.17 6.122h-.59zM19.326 13.258h.63l1.46 4.29-.28.818-1.81-5.108zM34.09 13.8H31.56l-.84 2.375h2.615l-.186.542h-2.622l-.755 2.132h2.566l-.185.54H29.27l.005-.01h-.298l.365-.962 1.767-5.16h3.171l-.186.542zM28.993 13.8l-1.977 5.58h-.592l.364-.962 1.767-5.16h1.653l-.186.542h-1.03zM26.44 13.8l-1.977 5.58h-.592l.365-.962 1.767-5.16H27.697l-.185.542H26.44zM12.074 24.57c1.05.674 2.197 1.14 3.414 1.387l.043-.115c-.772-.427-1.476-1.093-2.094-1.978l-.027-.04-.047.018c-.462.178-.895.388-1.288.622l-.085.05.084.055zm5.315 1.585V23.11h-.062c-1.278.02-2.54.234-3.644.616l-.078.027.048.067c1.04 1.46 2.31 2.265 3.67 2.33l.065.005zm.28-.004c1.35-.06 2.66-.897 3.693-2.352l.048-.068-.078-.026c-1.12-.376-2.385-.582-3.662-.594h-.063v3.044l.063-.003zm1.838-.192c1.23-.25 2.392-.726 3.456-1.416l.083-.054-.086-.05c-.397-.236-.837-.444-1.306-.62l-.046-.016-.027.04c-.622.896-1.333 1.57-2.114 2l.042.116zM8.984 21.444c.403.638.87 1.232 1.4 1.763.42.42.883.807 1.38 1.154l.033.025.035-.022c.417-.263.883-.496 1.384-.693l.07-.027-.04-.063c-.41-.637-.758-1.355-1.048-2.136h.223c.288.766.63 1.468 1.034 2.085l.027.04.047-.016c1.155-.41 2.47-.637 3.804-.66h.062v-1.45h.216v1.45h.06c1.352.014 2.674.233 3.823.635l.047.014.026-.04c.396-.61.735-1.303 1.02-2.06h.222c-.287.77-.63 1.48-1.034 2.112l-.04.063.07.026c.516.2.988.432 1.404.69l.035.02.032-.023c1.107-.777 2.028-1.75 2.746-2.89h.24c-1.842 3.014-5.14 4.93-8.76 4.93-2.747 0-5.327-1.07-7.266-3.013-.58-.58-1.075-1.224-1.495-1.916h.247zM22.922 7.968c-1.05-.675-2.197-1.142-3.414-1.388l-.043.115c.773.427 1.477 1.093 2.095 1.978l.027.04.046-.018c.462-.178.895-.388 1.288-.622l.085-.05-.083-.055zm-5.315-1.586l-.002 3.045h.063c1.278-.02 2.54-.234 3.644-.616l.078-.026-.048-.067c-1.04-1.46-2.31-2.265-3.67-2.33l-.065-.005zm-.28.004c-1.35.062-2.662.898-3.695 2.353l-.047.067.08.026c1.118.376 2.384.582 3.66.594h.064V6.384l-.064.003zm-1.84.193c-1.228.25-2.39.725-3.455 1.415l-.083.054.085.05c.398.235.838.443 1.307.62l.046.015.027-.04c.623-.896 1.334-1.57 2.115-2l-.042-.116zm10.525 4.513c-.403-.638-.87-1.232-1.4-1.763-.42-.42-.883-.807-1.38-1.154l-.033-.024-.037.022c-.417.263-.883.496-1.384.693l-.07.027.04.063c.41.637.757 1.355 1.047 2.136h-.223c-.287-.766-.63-1.468-1.033-2.085l-.026-.04-.046.015c-1.155.41-2.47.637-3.804.66h-.06v1.45h-.216v-1.45h-.06c-1.352-.014-2.675-.233-3.823-.635l-.047-.015-.025.04c-.396.61-.735 1.303-1.02 2.06h-.222c.288-.77.63-1.48 1.035-2.112l.04-.062-.07-.027c-.516-.2-.988-.43-1.404-.688l-.033-.022-.034.024c-1.107.777-2.028 1.75-2.746 2.89h-.24c1.842-3.014 5.14-4.93 8.76-4.93 2.748 0 5.327 1.07 7.266 3.013.58.58 1.075 1.225 1.495 1.916h-.246zM6.31 10.573l-1.023-.185-.06.112.937.98.08-.156-.73-.744 1.024.182.058-.113-.736-.734 1.03.17.08-.155-1.34-.2-.056.11.736.733zM7.245 8.46c.22.158.314.456.138.7-.178.246-.492.25-.71.092-.217-.157-.314-.457-.137-.702.177-.244.49-.247.71-.09m-.675.934c.284.204.693.19.936-.145.24-.336.126-.728-.157-.933-.284-.203-.695-.19-.936.144-.242.337-.125.73.157.934M8.285 7.584c.113.106.138.273.024.396l-.193.21-.418-.392.19-.207c.114-.123.282-.11.395-.006m-.17.83l.305-.33c.18-.196.15-.46-.022-.62-.136-.13-.33-.162-.492-.074l-.137-.495-.13.138.126.467-.178.193-.3-.278-.11.122.937.877zM8.665 6.278l-.1-.112-.437.393.86.953.123-.112-.756-.84.312-.282zM9.763 6.65l-.578-.792.185-.135c.253-.185.54-.094.687.106.147.198.145.498-.108.684l-.187.136zm.274-.015c.343-.25.35-.647.16-.908-.193-.262-.573-.375-.916-.125l-.32.234.758 1.034.32-.234zM11.97 5.15l-.706-.768-.113.054.155 1.35.16-.075-.136-1.038.708.765.115-.054-.144-1.033.717.76.16-.074-.95-.973-.11.053.143 1.033zM13.21 4.957l.162-.057-.424-1.21-.162.055.424 1.212zM13.912 4.572l-.24-.953.223-.058c.307-.076.538.117.598.358.062.24-.053.52-.358.597l-.223.055zm.26.09c.412-.104.568-.47.49-.784-.08-.316-.39-.565-.804-.46l-.383.095.313 1.246.384-.097zM15.352 4.263l-.056-.416.548-.072-.02-.15-.548.075-.055-.41.55-.073-.022-.148-.71.095.17 1.27.712-.098-.02-.147-.548.073zM17.726 4.005l-.264-1.01-.124-.007-.495 1.27.176.01.365-.986.266 1.01.127.006.356-.983.277 1.01.175.007-.38-1.306-.124-.006-.354.985zM19.087 4.282l.075-.413.543.098.027-.147-.543-.098.072-.405.543.098.027-.147-.708-.128-.227 1.26.708.128.026-.147-.543-.098zM20.388 3.988l.116-.405.27.078c.16.047.182.17.156.265-.023.083-.116.185-.27.142l-.272-.08zm.222.223c.16.046.178.174.155.256-.023.084-.107.182-.272.136l-.26-.076.113-.392.264.077zm-.578.416l.42.12c.298.085.43-.08.47-.223.042-.15-.034-.285-.14-.34.096.02.26-.044.31-.218.04-.14.013-.366-.284-.45l-.423-.12-.353 1.23zM22.288 4.473c.074-.16.226-.214.384-.142.135.063.196.185.14.306-.065.142-.203.127-.318.11-.24-.03-.44-.05-.55.186-.083.185.013.383.222.478.21.096.43.026.53-.19l-.152-.067c-.063.132-.182.182-.313.122-.126-.06-.182-.164-.132-.273.057-.127.18-.12.308-.102.207.023.447.048.55-.177.105-.23-.012-.432-.233-.533-.226-.104-.472-.034-.585.214l.15.07zM23.14 5.712l.214-.363.478.28.076-.13-.478-.28.21-.358.478.28.076-.13-.622-.364-.652 1.11.623.363.076-.128-.48-.28zM24.745 6.432c-.09.124-.255.167-.39.068l-.226-.168.338-.46.227.17c.134.098.143.265.05.39m-.84-.078l.362.265c.214.16.473.1.612-.09.11-.15.12-.345.014-.496l.475-.192-.154-.112-.446.177-.212-.158.242-.328-.134-.098-.76 1.03zM26.106 6.473l-.09-.08-1.205.65.132.117.933-.523-.438.97.13.118.54-1.252zM25.774 7.947l.118.127.938-.877-.12-.126-.936.877zM27.653 8.815c.15-.197.154-.493-.033-.733-.258-.332-.66-.338-.943-.12-.275.216-.375.608-.128.922.226.293.517.326.758.2l-.108-.14c-.17.085-.375.052-.522-.136-.192-.248-.108-.545.104-.71.223-.173.528-.17.73.092.11.138.12.342.03.48l.11.145zM27.366 9.74l.36-.22.288.474.13-.08-.29-.472.353-.216.29.474.128-.08-.377-.614-1.098.67.377.616.13-.078-.29-.474zM28.575 10.39c.158-.078.31-.023.387.134.064.133.036.265-.085.324-.14.068-.24-.03-.317-.116-.168-.176-.308-.32-.543-.204-.183.088-.234.3-.132.508.1.21.316.294.53.192l-.074-.15c-.132.063-.256.025-.32-.104-.06-.127-.037-.245.07-.297.126-.06.218.023.304.117.146.15.316.323.54.212.225-.11.264-.342.157-.56-.108-.222-.342-.327-.588-.206l.073.15zM5.683 6.352c.13-.154.28-.11.36-.043.08.07.148.21.013.367l-.215.25-.376-.32.22-.255zm-.36.134l-.388-.33.223-.26c.132-.155.28-.117.37-.04.08.067.147.22.02.367l-.224.263zm.526.714l.345-.405c.244-.286.127-.513-.008-.63-.145-.122-.334-.105-.45-.016.073-.098.085-.31-.083-.452-.135-.117-.397-.2-.64.086l-.35.405L5.85 7.2zM7.115 5.1c.13.136.145.34-.002.478l-.25.24-.478-.504.25-.238c.148-.14.35-.113.48.023m-.273.987l.396-.376c.236-.223.22-.544.025-.75-.158-.164-.388-.217-.593-.124l-.127-.608-.168.16.115.57-.232.222-.342-.36-.147.138 1.072 1.13zM8.54 3.662c.194.262.194.64-.1.854-.294.218-.655.106-.848-.156-.192-.26-.194-.64.1-.855.293-.216.657-.104.848.157m-1.118.824c.25.338.724.474 1.127.178.398-.295.412-.79.162-1.13-.247-.336-.726-.472-1.126-.176-.402.295-.412.79-.164 1.128M10.304 2.636c.154.288.104.662-.217.838-.322.176-.666.016-.824-.27-.156-.286-.105-.664.217-.84.322-.174.668-.012.824.272m-1.227.668c.204.37.657.57 1.098.33.438-.24.518-.73.315-1.1-.202-.37-.66-.568-1.096-.33-.442.24-.518.73-.317 1.1M11.136 2.18l-.268-.655-.185.075.586 1.443.186-.074-.267-.658.872.413.236-.094-.953-.457.367-.985-.238.095-.338.897zM12.96.986l-.05-.174-.68.205.44 1.493.194-.058-.39-1.318.486-.148zM13.57.65l-.22.05.44.538-.374 1.05.23-.054.29-.812.515.632.218-.05L13.57.652zM15.812.656l.13 1.197.202-.022-.168-1.548-.225.024-.565 1.274-.13-1.197-.202.022.168 1.55.224-.026.568-1.274zM16.753.554c.11-.002.186-.098.182-.23C16.93.08 16.8-.002 16.593 0l.002.096c.08-.002.135.023.162.065.025.036.035.07.035.098-.01-.01-.03-.017-.05-.016-.094 0-.153.074-.15.16 0 .086.07.155.16.152M19.28.745l-.14 1.195.202.023.18-1.546L19.3.39l-.837 1.116.14-1.196L18.4.287l-.18 1.546.223.026.838-1.115zM20.072 1.916l.11-.497.656.143.04-.177-.654-.146.11-.488.654.144.04-.178-.85-.19-.344 1.523.85.19.042-.178-.654-.146zM22.136 2.323l.055-1.267-.142-.05-1.023 1.29.2.074L22 1.363l-.053 1.267.142.05.76-1.01-.04 1.27.2.073.026-1.65-.14-.053-.76 1.013zM25.09 2.35l-.192-.11-.043.69-.983.517.203.12.764-.4-.052.813.194.112.11-1.742zM26.7 4.367c-.194.262-.556.373-.847.156-.295-.217-.295-.594-.1-.857.194-.26.557-.372.852-.154.29.215.29.594.096.855m-1.116-.826c-.252.34-.24.832.16 1.13.398.295.877.163 1.13-.176.25-.337.24-.833-.16-1.13-.402-.297-.878-.16-1.13.177M27.753 5.643c-.13.135-.332.164-.48.025l-.25-.237.476-.504.25.237c.148.138.132.34.003.48m-1.004-.218l.398.376c.236.224.556.19.753-.02.156-.164.197-.4.09-.598l.603-.16-.168-.16-.567.15-.232-.22.34-.36-.147-.14-1.07 1.133zM28.59 6.066l.538-.46-.13-.154-1.184 1.012.13.154.538-.46-.112.956.168.194.127-1.047 1.057.035-.166-.194-.965-.034zM29.78 7.533l-.204.143c.905 1.313 1.596 2.772 2.052 4.335l.24-.07c-.464-1.588-1.166-3.07-2.087-4.407M4.495 7.533c-.92 1.336-1.623 2.82-2.087 4.407l.24.07C3.104 10.45 3.795 8.99 4.7 7.677l-.205-.143zM2.713 20.696l-.238.074c.87 2.812 2.538 5.31 4.824 7.223l.16-.192c-2.25-1.88-3.89-4.338-4.747-7.104M31.564 20.697c-1.97 6.357-7.766 10.63-14.426 10.63-.886 0-1.758-.076-2.613-.226-1.234-.215-1.148-.133-1.148-.133s.807.326.975.357c.91.168 1.84.252 2.786.252 6.77 0 12.663-4.342 14.664-10.805l-.238-.073zM7.9 29.043c.004-.022.013-.052.025-.068l-.357-.258c-.01.03-.02.047-.025.07l.357.256zM12.364 30.09c.032.015.046.056.03.09-.014.03-.048.044-.08.034-.003 0-.006-.002-.01-.004l-3.19-1.56c.022-.04.042-.08.06-.12l3.19 1.56zM12.677 31.298c.03.02.04.062.02.093-.02.03-.055.04-.085.026l-.01-.005L8.9 29c.02-.028.047-.068.076-.113l3.7 2.41zM10.738 31.681l-2.195-2.278c.037-.033.073-.068.107-.103l2.198 2.283c.026.026.022.07-.008.097-.028.025-.068.027-.094.008l-.008-.007" fill="#fef8f0"/><path d="M8.083 29.25l.066.046c.018-.146.132-.372.308-.616.175-.243.354-.423.487-.487l-.64-.462c-.077.02-.28.182-.496.482-.218.3-.307.544-.302.622l.363.26v.002l.213.153zm-.347-1.09c.25-.35.53-.58.626-.51l.487.35.048.036.016.01.154.112.016.012c.098.07-.034.407-.286.756-.25.35-.523.572-.62.502l-.18-.13-.056-.04-.487-.35c-.097-.07.03-.4.28-.748" fill="#fef8f0"/></g></svg>