<?xml version="1.0" encoding="UTF-8" standalone="no"?>
<svg
   xmlns:dc="http://purl.org/dc/elements/1.1/"
   xmlns:cc="http://creativecommons.org/ns#"
   xmlns:rdf="http://www.w3.org/1999/02/22-rdf-syntax-ns#"
   xmlns:svg="http://www.w3.org/2000/svg"
   xmlns="http://www.w3.org/2000/svg"
   viewBox="0 0 42.846127 39.626625"
   height="39.626625"
   width="42.846127"
   xml:space="preserve"
   version="1.1"
   id="svg2"><metadata
     id="metadata8"><rdf:RDF><cc:Work
         rdf:about=""><dc:format>image/svg+xml</dc:format><dc:type
           rdf:resource="http://purl.org/dc/dcmitype/StillImage" /><dc:title></dc:title></cc:Work></rdf:RDF></metadata><defs
     id="defs6"><clipPath
       id="clipPath16"
       clipPathUnits="userSpaceOnUse"><path
         id="path18"
         d="m 0,31.701 34.277,0 L 34.277,0 0,0 0,31.701 Z" /></clipPath></defs><g
     transform="matrix(1.25,0,0,-1.25,0,39.626625)"
     id="g10"><g
       id="g12"><g
         clip-path="url(#clipPath16)"
         id="g14"><g
           transform="translate(9.0576,15.8643)"
           id="g20"><path
             id="path22"
             style="fill:#ff8c3b;fill-opacity:1;fill-rule:nonzero;stroke:none"
             d="M 0,0 -0.93,0 -1.984,2.974 0,2.974 C 0.883,2.974 1.443,2.292 1.443,1.487 1.443,0.682 0.883,0 0,0 M 2.047,1.487 C 2.047,2.58 1.242,3.516 0,3.516 l -2.176,0 -0.12,0 -0.472,0 0.364,-0.962 1.767,-5.16 0.63,0 -0.731,2.064 0.729,0 1.303,-2.064 0.691,0 -1.373,2.16 c 0.883,0.245 1.435,1.032 1.435,1.933" /></g><g
           transform="translate(3.1571,18.9088)"
           id="g24"><path
             id="path26"
             style="fill:#ff8c3b;fill-opacity:1;fill-rule:nonzero;stroke:none"
             d="m 0,0 c 1.26,0 2.03,-0.717 2.257,-1.654 l 0.621,0 C 2.633,-0.42 1.662,0.542 -0.07,0.542 c -1.915,0 -3.087,-1.531 -3.087,-3.184 0,-1.714 1.207,-3.201 3.201,-3.201 1.426,0 2.501,0.84 2.834,1.933 l -0.656,0 C 1.933,-4.715 1.076,-5.301 0.114,-5.301 c -1.688,0 -2.659,1.225 -2.659,2.659 C -2.545,-1.269 -1.609,0 0,0" /></g><g
           transform="translate(19.717,19.3804)"
           id="g28"><path
             id="path30"
             style="fill:#ff8c3b;fill-opacity:1;fill-rule:nonzero;stroke:none"
             d="m 0,0 -1.767,-5.161 -0.365,-0.962 0.593,0 L 0.63,0 0,0 Z" /></g><g
           transform="translate(16.2229,19.3804)"
           id="g32"><path
             id="path34"
             style="fill:#ff8c3b;fill-opacity:1;fill-rule:nonzero;stroke:none"
             d="M 0,0 -0.63,0 1.18,-5.109 1.461,-4.289 0,0 Z" /></g><g
           transform="translate(13.8936,13.7999)"
           id="g36"><path
             id="path38"
             style="fill:#ff8c3b;fill-opacity:1;fill-rule:nonzero;stroke:none"
             d="m 0,0 -0.841,2.375 2.615,0 -0.185,0.542 -2.622,0 -0.755,2.132 2.566,0 -0.186,0.542 -2.881,0 0.003,-0.01 -0.283,0 0.364,-0.963 1.767,-5.16 0.03,0 0.6,0 2.525,0 L 2.531,0 0,0 Z" /></g><g
           transform="translate(21.3186,19.3804)"
           id="g40"><path
             id="path42"
             style="fill:#ff8c3b;fill-opacity:1;fill-rule:nonzero;stroke:none"
             d="m 0,0 0.365,-0.962 1.766,-5.161 0.63,0 L 0.592,0 0,0 Z" /></g><g
           transform="translate(19.3262,13.2579)"
           id="g44"><path
             id="path46"
             style="fill:#ff8c3b;fill-opacity:1;fill-rule:nonzero;stroke:none"
             d="M 0,0 0.63,0 2.09,4.289 1.81,5.108 0,0 Z" /></g><g
           transform="translate(34.0911,13.7999)"
           id="g48"><path
             id="path50"
             style="fill:#ff8c3b;fill-opacity:1;fill-rule:nonzero;stroke:none"
             d="m 0,0 -0.015,0 -1.893,0 -0.623,0 -0.841,2.375 0.714,0 1.887,0 0.015,0 -0.186,0.542 -0.015,0 -1.893,0 -0.714,0 -0.755,2.132 0.81,0 1.741,0 0.015,0 -0.185,0.542 -0.016,0 -1.747,0 -1.119,0 0.004,-0.01 -0.284,0 -0.015,0 0.365,-0.963 1.766,-5.16 0.016,0 0.03,0 0.584,0 0.015,0 0.623,0 1.886,0 0.016,0 L 0,0 Z" /></g><g
           transform="translate(28.9927,13.7999)"
           id="g52"><path
             id="path54"
             style="fill:#ff8c3b;fill-opacity:1;fill-rule:nonzero;stroke:none"
             d="m 0,0 -1.977,5.581 -0.592,0 0.364,-0.963 1.767,-5.16 0.018,0 0.612,0 1.023,0 L 1.029,0 0,0 Z" /></g><g
           transform="translate(26.4402,13.7999)"
           id="g56"><path
             id="path58"
             style="fill:#ff8c3b;fill-opacity:1;fill-rule:nonzero;stroke:none"
             d="m 0,0 -1.977,5.581 -0.592,0 0.364,-0.963 1.767,-5.16 0.061,0 0.569,0 1.065,0 L 1.072,0 0,0 Z" /></g><g
           transform="translate(12.0738,24.5687)"
           id="g60"><path
             id="path62"
             style="fill:#ff8c3b;fill-opacity:1;fill-rule:nonzero;stroke:none"
             d="M 0,0 C 1.049,0.675 2.197,1.142 3.414,1.388 L 3.457,1.273 C 2.684,0.846 1.98,0.18 1.362,-0.705 L 1.335,-0.744 1.289,-0.727 C 0.827,-0.549 0.394,-0.339 0.001,-0.105 L -0.084,-0.054 0,0 Z M 5.315,1.586 5.317,-1.459 5.254,-1.458 C 3.976,-1.438 2.715,-1.225 1.61,-0.843 L 1.532,-0.816 1.58,-0.749 C 2.621,0.71 3.891,1.516 5.251,1.582 L 5.315,1.586 Z M 5.596,1.582 C 6.945,1.52 8.256,0.684 9.289,-0.771 L 9.337,-0.839 9.258,-0.865 C 8.139,-1.241 6.873,-1.447 5.596,-1.459 L 5.533,-1.46 5.532,1.585 5.596,1.582 Z M 7.434,1.389 C 8.663,1.139 9.826,0.663 10.89,-0.027 l 0.083,-0.054 -0.086,-0.051 C 10.489,-0.367 10.049,-0.575 9.58,-0.751 L 9.534,-0.767 9.507,-0.728 C 8.884,0.169 8.173,0.843 7.392,1.274 L 7.434,1.389 Z M -3.09,-3.125 c 0.403,0.638 0.87,1.232 1.4,1.763 0.419,0.419 0.883,0.807 1.38,1.154 l 0.033,0.024 0.035,-0.022 C 0.175,-0.469 0.641,-0.702 1.142,-0.899 L 1.212,-0.926 1.171,-0.989 C 0.761,-1.626 0.414,-2.344 0.124,-3.125 l 0.223,0 c 0.287,0.766 0.63,1.468 1.033,2.085 l 0.027,0.041 0.046,-0.016 c 1.155,-0.41 2.47,-0.637 3.804,-0.659 l 0.061,-0.001 0,-1.45 0.216,0 -10e-4,1.45 0.061,0.001 c 1.352,0.013 2.674,0.232 3.823,0.634 l 0.046,0.015 0.026,-0.04 c 0.396,-0.61 0.735,-1.303 1.019,-2.06 l 0.223,0 c -0.287,0.771 -0.63,1.481 -1.034,2.112 l -0.041,0.063 0.071,0.027 c 0.515,0.2 0.987,0.432 1.403,0.689 l 0.035,0.022 0.033,-0.024 c 1.107,-0.777 2.028,-1.751 2.746,-2.889 l 0.24,0 C 12.342,-0.112 9.045,1.805 5.423,1.805 2.677,1.804 0.097,0.733 -1.842,-1.209 -2.422,-1.79 -2.917,-2.433 -3.337,-3.125 l 0.247,0 z" /></g><g
           transform="translate(22.9215,7.9678)"
           id="g64"><path
             id="path66"
             style="fill:#ff8c3b;fill-opacity:1;fill-rule:nonzero;stroke:none"
             d="m 0,0 c -1.049,-0.675 -2.197,-1.142 -3.414,-1.388 l -0.043,0.115 c 0.773,0.427 1.477,1.093 2.095,1.978 l 0.027,0.039 0.046,-0.017 C -0.827,0.549 -0.394,0.339 -0.001,0.105 L 0.084,0.054 0,0 Z M -5.315,-1.586 -5.317,1.459 -5.254,1.458 C -3.976,1.438 -2.715,1.225 -1.61,0.843 L -1.532,0.816 -1.58,0.749 C -2.621,-0.71 -3.891,-1.516 -5.251,-1.582 l -0.064,-0.004 z m -0.281,0.004 c -1.349,0.062 -2.66,0.898 -3.693,2.353 l -0.048,0.068 0.079,0.026 c 1.119,0.376 2.385,0.582 3.662,0.594 l 0.063,10e-4 0.001,-3.045 -0.064,0.003 z m -1.838,0.193 c -1.229,0.25 -2.392,0.726 -3.456,1.416 l -0.083,0.054 0.086,0.051 c 0.398,0.235 0.838,0.443 1.307,0.619 l 0.046,0.016 0.027,-0.039 c 0.623,-0.897 1.334,-1.571 2.115,-2.002 L -7.434,-1.389 Z M 3.09,3.125 C 2.687,2.487 2.22,1.893 1.69,1.362 1.271,0.943 0.807,0.555 0.31,0.208 L 0.277,0.184 0.242,0.206 c -0.417,0.263 -0.883,0.496 -1.384,0.693 l -0.07,0.027 0.041,0.063 c 0.41,0.637 0.757,1.355 1.047,2.136 l -0.223,0 C -0.634,2.359 -0.977,1.657 -1.38,1.04 L -1.407,0.999 -1.453,1.015 c -1.155,0.41 -2.47,0.637 -3.804,0.659 l -0.061,0.001 0,1.45 -0.216,0 10e-4,-1.45 -0.061,-0.001 C -6.946,1.661 -8.268,1.442 -9.417,1.04 l -0.046,-0.015 -0.026,0.04 c -0.396,0.61 -0.735,1.303 -1.019,2.06 l -0.223,0 c 0.287,-0.771 0.63,-1.481 1.034,-2.112 L -9.656,0.95 -9.727,0.923 c -0.515,-0.2 -0.987,-0.432 -1.403,-0.689 l -0.035,-0.022 -0.033,0.024 c -1.107,0.777 -2.028,1.751 -2.746,2.889 l -0.24,0 c 1.842,-3.013 5.139,-4.93 8.761,-4.93 2.746,10e-4 5.326,1.072 7.265,3.014 0.58,0.581 1.075,1.225 1.495,1.916 l -0.247,0 z" /></g><g
           transform="translate(6.31,10.5733)"
           id="g68"><path
             id="path70"
             style="fill:#ff8c3b;fill-opacity:1;fill-rule:nonzero;stroke:none"
             d="m 0,0 -1.023,-0.185 -0.059,0.112 0.936,0.98 L -0.065,0.751 -0.797,0.007 0.228,0.189 0.286,0.076 -0.45,-0.657 0.58,-0.486 0.66,-0.642 -0.68,-0.844 -0.736,-0.734 0,0 Z" /></g><g
           transform="translate(7.2446,8.46)"
           id="g72"><path
             id="path74"
             style="fill:#ff8c3b;fill-opacity:1;fill-rule:nonzero;stroke:none"
             d="M 0,0 C 0.219,0.158 0.314,0.456 0.138,0.7 -0.04,0.946 -0.354,0.95 -0.571,0.792 -0.789,0.635 -0.886,0.335 -0.709,0.09 -0.532,-0.154 -0.218,-0.157 0,0 M -0.674,0.934 C -0.391,1.138 0.018,1.124 0.261,0.789 0.502,0.454 0.387,0.062 0.104,-0.143 -0.179,-0.346 -0.59,-0.332 -0.831,0.001 -1.073,0.337 -0.956,0.73 -0.674,0.934" /></g><g
           transform="translate(8.2846,7.5841)"
           id="g76"><path
             id="path78"
             style="fill:#ff8c3b;fill-opacity:1;fill-rule:nonzero;stroke:none"
             d="M 0,0 C 0.113,0.106 0.138,0.273 0.024,0.396 L -0.168,0.605 -0.586,0.214 -0.394,0.007 C -0.281,-0.117 -0.113,-0.105 0,0 M -0.17,0.83 0.135,0.499 c 0.18,-0.195 0.15,-0.46 -0.022,-0.62 -0.136,-0.129 -0.329,-0.161 -0.492,-0.073 l -0.137,-0.495 -0.129,0.138 0.126,0.467 -0.178,0.193 -0.299,-0.278 -0.112,0.122 0.938,0.877 z" /></g><g
           transform="translate(8.6655,6.2784)"
           id="g80"><path
             id="path82"
             style="fill:#ff8c3b;fill-opacity:1;fill-rule:nonzero;stroke:none"
             d="M 0,0 -0.101,-0.112 -0.537,0.281 0.322,1.235 0.446,1.123 -0.312,0.281 0,0 Z" /></g><g
           transform="translate(9.7631,6.6505)"
           id="g84"><path
             id="path86"
             style="fill:#ff8c3b;fill-opacity:1;fill-rule:nonzero;stroke:none"
             d="m 0,0 -0.578,-0.792 0.185,-0.136 c 0.253,-0.185 0.541,-0.094 0.687,0.106 0.147,0.2 0.145,0.5 -0.108,0.686 L 0,0 Z m 0.274,-0.015 c 0.343,-0.251 0.35,-0.648 0.159,-0.909 -0.192,-0.262 -0.572,-0.375 -0.915,-0.125 l -0.32,0.234 0.757,1.034 0.319,-0.234 z" /></g><g
           transform="translate(11.9701,5.1495)"
           id="g88"><path
             id="path90"
             style="fill:#ff8c3b;fill-opacity:1;fill-rule:nonzero;stroke:none"
             d="m 0,0 -0.706,-0.767 -0.113,0.054 0.154,1.35 L -0.506,0.561 -0.641,-0.477 0.068,0.288 0.183,0.234 0.039,-0.799 0.757,-0.038 0.916,-0.113 -0.032,-1.086 -0.144,-1.033 0,0 Z" /></g><g
           transform="translate(13.2104,4.9571)"
           id="g92"><path
             id="path94"
             style="fill:#ff8c3b;fill-opacity:1;fill-rule:nonzero;stroke:none"
             d="M 0,0 0.162,-0.057 -0.262,-1.268 -0.424,-1.212 0,0 Z" /></g><g
           transform="translate(13.9125,4.5723)"
           id="g96"><path
             id="path98"
             style="fill:#ff8c3b;fill-opacity:1;fill-rule:nonzero;stroke:none"
             d="m 0,0 -0.239,-0.953 0.222,-0.057 c 0.307,-0.076 0.538,0.117 0.598,0.358 0.062,0.241 -0.053,0.519 -0.358,0.597 L 0,0 Z M 0.26,0.091 C 0.672,-0.014 0.828,-0.38 0.749,-0.694 0.67,-1.01 0.359,-1.259 -0.054,-1.155 l -0.383,0.096 0.312,1.246 0.385,-0.096 z" /></g><g
           transform="translate(15.352,4.2628)"
           id="g100"><path
             id="path102"
             style="fill:#ff8c3b;fill-opacity:1;fill-rule:nonzero;stroke:none"
             d="m 0,0 -0.056,-0.416 0.548,-0.072 -0.02,-0.15 -0.548,0.075 -0.055,-0.409 0.548,-0.074 -0.021,-0.148 -0.711,0.096 0.17,1.269 L 0.568,0.074 0.548,-0.073 0,0 Z" /></g><g
           transform="translate(17.726,4.005)"
           id="g104"><path
             id="path106"
             style="fill:#ff8c3b;fill-opacity:1;fill-rule:nonzero;stroke:none"
             d="m 0,0 -0.264,-1.011 -0.124,-0.006 -0.495,1.271 0.176,0.008 0.366,-0.985 0.266,1.011 L 0.051,0.293 0.407,-0.69 0.684,0.319 0.859,0.327 0.479,-0.979 0.355,-0.985 0,0 Z" /></g><g
           transform="translate(19.0873,4.2823)"
           id="g108"><path
             id="path110"
             style="fill:#ff8c3b;fill-opacity:1;fill-rule:nonzero;stroke:none"
             d="M 0,0 0.075,-0.413 0.618,-0.314 0.645,-0.461 0.102,-0.56 0.175,-0.965 0.718,-0.867 0.745,-1.014 0.037,-1.142 -0.19,0.118 0.518,0.246 0.544,0.099 0,0 Z" /></g><g
           transform="translate(20.3881,3.9884)"
           id="g112"><path
             id="path114"
             style="fill:#ff8c3b;fill-opacity:1;fill-rule:nonzero;stroke:none"
             d="m 0,0 0.116,-0.405 0.27,0.078 c 0.161,0.046 0.182,0.17 0.156,0.264 C 0.519,0.02 0.426,0.122 0.273,0.079 L 0,0 Z M 0.222,0.223 C 0.382,0.268 0.4,0.396 0.377,0.478 0.354,0.562 0.27,0.66 0.105,0.614 l -0.26,-0.076 0.113,-0.392 0.264,0.077 z m -0.578,0.415 0.42,0.121 C 0.362,0.843 0.494,0.677 0.534,0.535 0.576,0.386 0.5,0.25 0.394,0.194 0.49,0.216 0.654,0.151 0.703,-0.023 0.744,-0.164 0.717,-0.389 0.42,-0.474 l -0.423,-0.12 -0.353,1.232 z" /></g><g
           transform="translate(22.2885,4.4727)"
           id="g116"><path
             id="path118"
             style="fill:#ff8c3b;fill-opacity:1;fill-rule:nonzero;stroke:none"
             d="M 0,0 C 0.074,-0.16 0.226,-0.214 0.384,-0.142 0.519,-0.08 0.58,0.042 0.525,0.163 0.459,0.305 0.321,0.29 0.206,0.273 c -0.24,-0.029 -0.44,-0.049 -0.549,0.186 -0.085,0.185 0.011,0.383 0.22,0.478 0.212,0.096 0.43,0.026 0.53,-0.189 L 0.256,0.68 C 0.193,0.812 0.074,0.862 -0.057,0.802 -0.185,0.743 -0.241,0.638 -0.191,0.529 -0.134,0.402 -0.01,0.409 0.117,0.427 0.324,0.45 0.564,0.475 0.668,0.25 0.773,0.021 0.656,-0.182 0.435,-0.283 0.209,-0.387 -0.037,-0.317 -0.15,-0.069 L 0,0 Z" /></g><g
           transform="translate(23.141,5.712)"
           id="g120"><path
             id="path122"
             style="fill:#ff8c3b;fill-opacity:1;fill-rule:nonzero;stroke:none"
             d="m 0,0 0.213,-0.363 0.478,0.28 0.076,-0.13 -0.478,-0.28 0.21,-0.357 0.478,0.281 0.076,-0.13 L 0.431,-1.064 -0.221,0.045 0.402,0.409 0.478,0.28 0,0 Z" /></g><g
           transform="translate(24.7455,6.4317)"
           id="g124"><path
             id="path126"
             style="fill:#ff8c3b;fill-opacity:1;fill-rule:nonzero;stroke:none"
             d="m 0,0 c -0.091,0.124 -0.255,0.167 -0.389,0.068 l -0.228,-0.168 0.34,-0.46 0.227,0.169 C 0.084,-0.292 0.093,-0.125 0,0 m -0.84,-0.078 0.362,0.265 c 0.214,0.16 0.473,0.1 0.612,-0.088 0.111,-0.15 0.121,-0.346 0.015,-0.497 L 0.624,-0.59 0.471,-0.702 0.025,-0.525 -0.187,-0.683 0.055,-1.01 -0.079,-1.108 -0.84,-0.078 Z" /></g><g
           transform="translate(26.1059,6.4727)"
           id="g128"><path
             id="path130"
             style="fill:#ff8c3b;fill-opacity:1;fill-rule:nonzero;stroke:none"
             d="m 0,0 -0.09,-0.081 -1.205,0.65 0.131,0.118 0.933,-0.523 -0.438,0.97 0.131,0.118 L 0,0 Z" /></g><g
           transform="translate(25.7738,7.9473)"
           id="g132"><path
             id="path134"
             style="fill:#ff8c3b;fill-opacity:1;fill-rule:nonzero;stroke:none"
             d="M 0,0 0.118,0.127 1.056,-0.75 0.937,-0.876 0,0 Z" /></g><g
           transform="translate(27.6528,8.8145)"
           id="g136"><path
             id="path138"
             style="fill:#ff8c3b;fill-opacity:1;fill-rule:nonzero;stroke:none"
             d="m 0,0 c 0.149,-0.197 0.154,-0.493 -0.033,-0.733 -0.258,-0.331 -0.66,-0.337 -0.943,-0.118 -0.275,0.214 -0.375,0.606 -0.128,0.92 0.227,0.294 0.518,0.327 0.759,0.2 L -0.453,0.13 c -0.171,0.085 -0.375,0.052 -0.522,-0.136 -0.192,-0.249 -0.108,-0.546 0.104,-0.71 0.223,-0.174 0.528,-0.171 0.731,0.091 0.108,0.138 0.12,0.342 0.028,0.48 L 0,0 Z" /></g><g
           transform="translate(27.3656,9.7403)"
           id="g140"><path
             id="path142"
             style="fill:#ff8c3b;fill-opacity:1;fill-rule:nonzero;stroke:none"
             d="M 0,0 0.359,-0.22 0.648,0.254 0.777,0.175 0.488,-0.298 0.841,-0.514 1.13,-0.04 1.259,-0.119 0.882,-0.734 -0.216,-0.063 0.161,0.552 0.29,0.474 0,0 Z" /></g><g
           transform="translate(28.5746,10.3897)"
           id="g144"><path
             id="path146"
             style="fill:#ff8c3b;fill-opacity:1;fill-rule:nonzero;stroke:none"
             d="M 0,0 C 0.158,-0.078 0.31,-0.023 0.387,0.134 0.451,0.267 0.423,0.399 0.302,0.458 0.162,0.526 0.063,0.428 -0.015,0.342 -0.183,0.166 -0.323,0.022 -0.558,0.138 -0.741,0.226 -0.792,0.439 -0.69,0.646 c 0.101,0.21 0.316,0.294 0.529,0.192 L -0.234,0.687 c -0.133,0.064 -0.257,0.026 -0.32,-0.103 -0.062,-0.127 -0.038,-0.245 0.07,-0.297 0.125,-0.061 0.217,0.023 0.303,0.117 0.146,0.15 0.316,0.323 0.54,0.212 C 0.584,0.507 0.623,0.274 0.516,0.056 0.407,-0.166 0.173,-0.271 -0.073,-0.15 L 0,0 Z" /></g><g
           transform="translate(5.683,6.3516)"
           id="g148"><path
             id="path150"
             style="fill:#ff8c3b;fill-opacity:1;fill-rule:nonzero;stroke:none"
             d="m 0,0 c 0.131,-0.154 0.281,-0.109 0.361,-0.043 0.08,0.07 0.147,0.211 0.012,0.368 L 0.158,0.575 -0.219,0.254 0,0 Z m -0.359,0.134 -0.389,-0.331 0.223,-0.259 c 0.132,-0.155 0.281,-0.117 0.369,-0.04 0.08,0.067 0.148,0.221 0.021,0.367 L -0.359,0.134 Z M 0.166,0.848 0.512,0.443 C 0.756,0.157 0.639,-0.07 0.504,-0.186 0.359,-0.309 0.17,-0.292 0.055,-0.203 0.127,-0.3 0.139,-0.512 -0.029,-0.654 c -0.135,-0.117 -0.397,-0.2 -0.641,0.086 l -0.348,0.405 1.184,1.011 z" /></g><g
           transform="translate(7.1147,5.0987)"
           id="g152"><path
             id="path154"
             style="fill:#ff8c3b;fill-opacity:1;fill-rule:nonzero;stroke:none"
             d="M 0,0 C 0.129,0.137 0.145,0.341 -0.002,0.479 L -0.252,0.718 -0.73,0.215 -0.479,-0.023 C -0.332,-0.162 -0.131,-0.136 0,0 M -0.273,0.988 0.123,0.612 C 0.359,0.388 0.344,0.067 0.148,-0.139 -0.01,-0.303 -0.24,-0.356 -0.445,-0.263 l -0.127,-0.608 -0.168,0.159 0.115,0.572 -0.232,0.221 -0.342,-0.36 -0.147,0.138 1.073,1.129 z" /></g><g
           transform="translate(8.5405,3.6622)"
           id="g156"><path
             id="path158"
             style="fill:#ff8c3b;fill-opacity:1;fill-rule:nonzero;stroke:none"
             d="M 0,0 C 0.193,0.262 0.193,0.64 -0.1,0.854 -0.395,1.072 -0.756,0.96 -0.949,0.698 -1.141,0.437 -1.143,0.059 -0.848,-0.157 -0.555,-0.373 -0.191,-0.261 0,0 m -1.119,0.824 c 0.25,0.338 0.724,0.474 1.127,0.178 0.4,-0.295 0.414,-0.79 0.164,-1.129 -0.248,-0.337 -0.727,-0.473 -1.127,-0.177 -0.402,0.295 -0.412,0.79 -0.164,1.128" /></g><g
           transform="translate(10.3041,2.6358)"
           id="g160"><path
             id="path162"
             style="fill:#ff8c3b;fill-opacity:1;fill-rule:nonzero;stroke:none"
             d="M 0,0 C 0.154,0.288 0.104,0.662 -0.217,0.838 -0.539,1.014 -0.883,0.854 -1.041,0.567 -1.197,0.282 -1.146,-0.096 -0.824,-0.271 -0.502,-0.446 -0.156,-0.284 0,0 m -1.227,0.668 c 0.204,0.371 0.657,0.569 1.098,0.329 0.438,-0.239 0.518,-0.728 0.315,-1.1 -0.202,-0.368 -0.659,-0.567 -1.096,-0.329 -0.442,0.241 -0.518,0.731 -0.317,1.1" /></g><g
           transform="translate(11.1362,2.1798)"
           id="g164"><path
             id="path166"
             style="fill:#ff8c3b;fill-opacity:1;fill-rule:nonzero;stroke:none"
             d="M 0,0 -0.268,-0.655 -0.453,-0.58 0.133,0.863 0.32,0.789 0.053,0.132 0.926,0.545 1.162,0.451 0.209,-0.007 0.576,-0.992 0.338,-0.897 0,0 Z" /></g><g
           transform="translate(12.9604,0.9864)"
           id="g168"><path
             id="path170"
             style="fill:#ff8c3b;fill-opacity:1;fill-rule:nonzero;stroke:none"
             d="M 0,0 -0.051,-0.174 -0.73,0.031 -0.289,1.524 -0.096,1.466 -0.486,0.148 0,0 Z" /></g><g
           transform="translate(13.5697,0.6514)"
           id="g172"><path
             id="path174"
             style="fill:#ff8c3b;fill-opacity:1;fill-rule:nonzero;stroke:none"
             d="M 0,0 -0.219,0.049 0.219,0.587 -0.154,1.636 0.076,1.583 0.365,0.771 0.881,1.403 1.098,1.354 0,0 Z" /></g><g
           transform="translate(15.8119,0.6563)"
           id="g176"><path
             id="path178"
             style="fill:#ff8c3b;fill-opacity:1;fill-rule:nonzero;stroke:none"
             d="M 0,0 0.131,1.197 0.332,1.175 0.164,-0.374 -0.061,-0.35 -0.627,0.924 -0.758,-0.273 -0.959,-0.251 -0.791,1.299 -0.568,1.273 0,0 Z" /></g><g
           transform="translate(16.7533,0.5538)"
           id="g180"><path
             id="path182"
             style="fill:#ff8c3b;fill-opacity:1;fill-rule:nonzero;stroke:none"
             d="M 0,0 C 0.111,-0.002 0.186,-0.098 0.182,-0.229 0.176,-0.474 0.047,-0.557 -0.16,-0.554 l 0.002,0.096 c 0.08,-0.002 0.135,0.023 0.162,0.065 0.025,0.035 0.035,0.068 0.035,0.097 -0.01,-0.009 -0.031,-0.017 -0.051,-0.016 -0.093,0.001 -0.152,0.074 -0.15,0.159 C -0.16,-0.066 -0.092,0.003 0,0" /></g><g
           transform="translate(19.2807,0.7452)"
           id="g184"><path
             id="path186"
             style="fill:#ff8c3b;fill-opacity:1;fill-rule:nonzero;stroke:none"
             d="m 0,0 -0.141,1.195 0.202,0.023 0.181,-1.546 -0.224,-0.026 -0.836,1.115 0.14,-1.196 -0.203,-0.023 -0.18,1.546 0.223,0.026 L 0,0 Z" /></g><g
           transform="translate(20.0717,1.9161)"
           id="g188"><path
             id="path190"
             style="fill:#ff8c3b;fill-opacity:1;fill-rule:nonzero;stroke:none"
             d="M 0,0 0.111,-0.497 0.766,-0.353 0.805,-0.53 0.152,-0.676 0.262,-1.164 0.916,-1.02 0.955,-1.198 0.105,-1.387 -0.238,0.135 0.613,0.323 0.654,0.146 0,0 Z" /></g><g
           transform="translate(22.1362,2.3233)"
           id="g192"><path
             id="path194"
             style="fill:#ff8c3b;fill-opacity:1;fill-rule:nonzero;stroke:none"
             d="m 0,0 0.055,-1.267 -0.143,-0.05 -1.023,1.291 0.201,0.073 0.773,-1.007 -0.052,1.267 0.142,0.051 0.762,-1.01 L 0.674,0.618 0.875,0.69 0.9,-0.961 0.76,-1.013 0,0 Z" /></g><g
           transform="translate(25.0912,2.3497)"
           id="g196"><path
             id="path198"
             style="fill:#ff8c3b;fill-opacity:1;fill-rule:nonzero;stroke:none"
             d="m 0,0 -0.193,-0.111 -0.043,0.692 -0.983,0.516 0.203,0.119 0.764,-0.4 L -0.303,1.63 -0.109,1.742 0,0 Z" /></g><g
           transform="translate(26.7006,4.3673)"
           id="g200"><path
             id="path202"
             style="fill:#ff8c3b;fill-opacity:1;fill-rule:nonzero;stroke:none"
             d="m 0,0 c -0.195,0.262 -0.557,0.373 -0.848,0.156 -0.295,-0.217 -0.295,-0.594 -0.099,-0.857 0.193,-0.26 0.556,-0.372 0.851,-0.154 C 0.195,-0.64 0.193,-0.261 0,0 m -1.117,-0.826 c -0.252,0.338 -0.24,0.831 0.16,1.129 0.398,0.295 0.877,0.163 1.129,-0.176 0.25,-0.337 0.24,-0.833 -0.16,-1.129 -0.401,-0.298 -0.877,-0.161 -1.129,0.176" /></g><g
           transform="translate(27.7533,5.6427)"
           id="g204"><path
             id="path206"
             style="fill:#ff8c3b;fill-opacity:1;fill-rule:nonzero;stroke:none"
             d="m 0,0 c -0.129,0.135 -0.332,0.164 -0.48,0.025 l -0.25,-0.237 0.476,-0.505 0.25,0.237 C 0.145,-0.342 0.129,-0.139 0,0 m -1.004,-0.218 0.399,0.376 c 0.236,0.223 0.556,0.188 0.753,-0.02 0.155,-0.165 0.196,-0.4 0.09,-0.599 L 0.84,-0.622 0.672,-0.78 l -0.567,0.148 -0.232,-0.219 0.34,-0.361 -0.147,-0.14 -1.07,1.134 z" /></g><g
           transform="translate(28.5912,6.0655)"
           id="g208"><path
             id="path210"
             style="fill:#ff8c3b;fill-opacity:1;fill-rule:nonzero;stroke:none"
             d="M 0,0 0.537,-0.461 0.406,-0.613 -0.777,0.399 -0.646,0.553 -0.109,0.093 -0.221,1.049 -0.053,1.243 0.074,0.196 1.131,0.229 0.965,0.035 0,0 Z" /></g><g
           transform="translate(29.7807,7.5333)"
           id="g212"><path
             id="path214"
             style="fill:#ff8c3b;fill-opacity:1;fill-rule:nonzero;stroke:none"
             d="M 0,0 -0.205,0.143 C 0.7,1.456 1.391,2.915 1.847,4.478 L 2.087,4.407 C 1.623,2.819 0.921,1.336 0,0" /></g><g
           transform="translate(4.4955,7.5333)"
           id="g216"><path
             id="path218"
             style="fill:#ff8c3b;fill-opacity:1;fill-rule:nonzero;stroke:none"
             d="m 0,0 c -0.921,1.336 -1.623,2.819 -2.087,4.407 l 0.24,0.071 C -1.391,2.915 -0.7,1.456 0.205,0.143 L 0,0 Z" /></g><g
           transform="translate(2.7133,20.6964)"
           id="g220"><path
             id="path222"
             style="fill:#ff8c3b;fill-opacity:1;fill-rule:nonzero;stroke:none"
             d="M 0,0 -0.238,0.074 C 0.632,2.886 2.3,5.384 4.586,7.297 L 4.746,7.105 C 2.497,5.223 0.856,2.766 0,0" /></g><g
           transform="translate(31.5637,20.6966)"
           id="g224"><path
             id="path226"
             style="fill:#ff8c3b;fill-opacity:1;fill-rule:nonzero;stroke:none"
             d="m 0,0 c -1.969,6.357 -7.766,10.629 -14.426,10.629 -0.886,0 -1.758,-0.075 -2.613,-0.225 -1.234,-0.216 -1.148,-0.134 -1.148,-0.134 0,0 0.807,0.326 0.975,0.357 0.911,0.168 1.841,0.252 2.786,0.252 6.771,0 12.663,-4.342 14.664,-10.805 L 0,0 Z" /></g><g
           transform="translate(7.9002,29.0427)"
           id="g228"><path
             id="path230"
             style="fill:#ff8c3b;fill-opacity:1;fill-rule:nonzero;stroke:none"
             d="m 0,0 c 0.004,-0.022 0.013,-0.052 0.025,-0.068 l -0.357,-0.258 c -0.01,0.03 -0.021,0.047 -0.025,0.069 L 0,0 Z" /></g><g
           transform="translate(12.3635,30.0892)"
           id="g232"><path
             id="path234"
             style="fill:#ff8c3b;fill-opacity:1;fill-rule:nonzero;stroke:none"
             d="M 0,0 C 0.033,0.016 0.047,0.057 0.031,0.09 0.016,0.12 -0.018,0.135 -0.05,0.125 -0.053,0.124 -0.056,0.123 -0.059,0.121 l -3.19,-1.559 c 0.021,-0.04 0.041,-0.081 0.058,-0.122 L 0,0 Z" /></g><g
           transform="translate(12.677,31.2978)"
           id="g236"><path
             id="path238"
             style="fill:#ff8c3b;fill-opacity:1;fill-rule:nonzero;stroke:none"
             d="M 0,0 C 0.031,0.02 0.04,0.062 0.019,0.093 0.001,0.122 -0.035,0.131 -0.065,0.118 -0.068,0.116 -0.071,0.115 -0.074,0.113 l -3.703,-2.412 c 0.02,-0.027 0.047,-0.067 0.076,-0.112 L 0,0 Z" /></g><g
           transform="translate(10.7377,31.6815)"
           id="g240"><path
             id="path242"
             style="fill:#ff8c3b;fill-opacity:1;fill-rule:nonzero;stroke:none"
             d="m 0,0 -2.195,-2.28 c 0.037,-0.032 0.073,-0.067 0.107,-0.102 l 2.198,2.284 c 0.026,0.026 0.022,0.07 -0.008,0.097 C 0.074,0.024 0.034,0.026 0.008,0.007 0.005,0.005 0.003,0.003 0,0" /></g><g
           transform="translate(8.083,29.2489)"
           id="g244"><path
             id="path246"
             style="fill:#ff8c3b;fill-opacity:1;fill-rule:nonzero;stroke:none"
             d="M 0,0 0,0 0.066,0.047 C 0.085,-0.099 0.199,-0.325 0.375,-0.569 0.55,-0.812 0.729,-0.992 0.862,-1.056 L 0.221,-1.518 c -0.076,0.019 -0.279,0.181 -0.495,0.481 -0.217,0.3 -0.306,0.544 -0.301,0.622 l 0.363,0.261 0,0.001 L 0,0 Z m -0.347,-1.089 c 0.251,-0.349 0.529,-0.581 0.626,-0.51 l 0.487,0.35 c 0.025,0.018 0.049,0.036 0.049,0.036 l 0.016,0.011 0.154,0.111 0.016,0.012 C 1.099,-1.009 0.967,-0.672 0.715,-0.323 0.464,0.026 0.192,0.249 0.095,0.179 L -0.084,0.05 C -0.092,0.044 -0.116,0.027 -0.141,0.009 l -0.487,-0.351 c -0.097,-0.07 0.029,-0.399 0.281,-0.747" /></g></g></g></g></svg>