<?xml version="1.0" encoding="UTF-8" standalone="no"?>
<svg
   xmlns:dc="http://purl.org/dc/elements/1.1/"
   xmlns:cc="http://creativecommons.org/ns#"
   xmlns:rdf="http://www.w3.org/1999/02/22-rdf-syntax-ns#"
   xmlns:svg="http://www.w3.org/2000/svg"
   xmlns="http://www.w3.org/2000/svg"
   xmlns:sodipodi="http://sodipodi.sourceforge.net/DTD/sodipodi-0.dtd"
   xmlns:inkscape="http://www.inkscape.org/namespaces/inkscape"
   width="3pt"
   height="5.91357pt"
   viewBox="0 0 3 5.91357"
   version="1.1"
   id="svg2"
   inkscape:version="0.91 r13725"
   sodipodi:docname="Vector Smart Object.svg">
  <metadata
     id="metadata23">
    <rdf:RDF>
      <cc:Work
         rdf:about="">
        <dc:format>image/svg+xml</dc:format>
        <dc:type
           rdf:resource="http://purl.org/dc/dcmitype/StillImage" />
        <dc:title></dc:title>
      </cc:Work>
    </rdf:RDF>
  </metadata>
  <defs
     id="defs21" />
  <sodipodi:namedview
     pagecolor="#ffffff"
     bordercolor="#666666"
     borderopacity="1"
     objecttolerance="10"
     gridtolerance="10"
     guidetolerance="10"
     inkscape:pageopacity="0"
     inkscape:pageshadow="2"
     inkscape:window-width="1920"
     inkscape:window-height="1017"
     id="namedview19"
     showgrid="false"
     inkscape:zoom="31.926569"
     inkscape:cx="-3.6063281"
     inkscape:cy="3.6646593"
     inkscape:window-x="-8"
     inkscape:window-y="-8"
     inkscape:window-maximized="1"
     inkscape:current-layer="surface620" />
  <g
     id="surface620"
     transform="translate(0.45103501,0.02505754)">
    <path
       style="fill:#000000;fill-opacity:1;fill-rule:nonzero;stroke:none"
       d="m 1.820313,0.710938 0,-0.5 C 1.761719,0.160156 1.511719,0.0898438 1.140625,0.0898438 c -0.367187,0 -0.617187,0.0703122 -0.679687,0.1210942 l -0.007813,0 0,0.5 c 0.128906,-0.070313 0.386719,-0.109375 0.6875,-0.109375 0.300781,0 0.550781,0.039062 0.679688,0.109375 m 0,0.289062 0,-0.109375 C 1.761719,0.839844 1.511719,0.769531 1.140625,0.769531 c -0.289062,0 -0.507812,0.039063 -0.617187,0.089844 -0.011719,0.011719 -0.03125,0.011719 -0.042969,0.019531 -0.007813,0 -0.007813,0.011719 -0.019531,0.011719 L 0.460938,1 C 0.589844,0.929688 0.839844,0.890625 1.140625,0.890625 1.441406,0.890625 1.691406,0.929688 1.820313,1 m 0.089843,0.101563 c 0,0.117187 -0.339843,0.207031 -0.769531,0.207031 -0.429687,0 -0.777344,-0.089844 -0.777344,-0.207031 L 0.371094,1.089844 0.363281,1.078125 l 0,-0.207031 0.007813,0 C 0.382813,0.839844 0.363281,0.839844 0.363281,0.808594 l 0,-0.597656 C 0.363281,0.0898438 0.710938,0 1.140625,0 1.570313,0 1.910156,0.0898438 1.910156,0.210938 l 0,0.597656 c 0,0.03125 -0.00781,0.03125 0,0.0625 z"
       id="path5"
       inkscape:connector-curvature="0" />
    <path
       style="fill:#000000;fill-opacity:1;fill-rule:nonzero;stroke:none"
       d="M 1.761719,0.648438 C 1.742188,0.640625 1.710938,0.628906 1.691406,0.628906 l 0,-0.4375 c 0.03125,0.007813 0.050782,0.007813 0.070313,0.019532 z"
       id="path7"
       inkscape:connector-curvature="0" />
    <path
       style="fill:#000000;fill-opacity:1;fill-rule:nonzero;stroke:none"
       d="M 0,4.882813 C -0.00390625,4.917969 0.0195313,4.953125 0.0546875,4.960938 0.0898438,4.964844 0.121094,4.945313 0.132813,4.914063 c 0,-0.00391 0,-0.00781 0,-0.00781 l 0.601562,-3.5 C 0.6875,1.398438 0.644531,1.390625 0.601563,1.382813 Z"
       id="path9"
       inkscape:connector-curvature="0" />
    <path
       style="fill:#000000;fill-opacity:1;fill-rule:nonzero;stroke:none"
       d="m 0.796875,5.84375 c 0,0.035156 0.027344,0.070313 0.066406,0.070313 0.03125,0 0.0625,-0.023438 0.066407,-0.054688 0.003906,-0.00391 0.003906,-0.00781 0.003906,-0.00781 L 1.140625,1.433594 c -0.03125,0 -0.082031,0 -0.132812,-0.00391 z"
       id="path11"
       inkscape:connector-curvature="0" />
    <path
       style="fill:#000000;fill-opacity:1;fill-rule:nonzero;stroke:none"
       d="M 2.242188,4.496094 1.675781,1.378906 C 1.628906,1.394531 1.582031,1.402344 1.53125,1.410156 L 2.097656,4.527344 C 2.105469,4.5625 2.144531,4.585938 2.183594,4.578125 2.21875,4.570313 2.242188,4.539063 2.242188,4.503906 c 0,-0.00391 0,-0.00391 0,-0.00781"
       id="path13"
       inkscape:connector-curvature="0" />
    <path
       style="fill:#000000;fill-opacity:1;fill-rule:nonzero;stroke:none"
       d="m 1.820313,0.710938 0,-0.5 C 1.761719,0.160156 1.511719,0.0898438 1.140625,0.0898438 c -0.367187,0 -0.617187,0.0703122 -0.679687,0.1210942 l -0.007813,0 0,0.5 c 0.128906,-0.070313 0.386719,-0.109375 0.6875,-0.109375 0.300781,0 0.550781,0.039062 0.679688,0.109375 m 0,0.289062 0,-0.109375 C 1.761719,0.839844 1.511719,0.769531 1.140625,0.769531 c -0.367187,0 -0.617187,0.070313 -0.679687,0.121094 L 0.460938,1 C 0.589844,0.929688 0.839844,0.890625 1.140625,0.890625 1.441406,0.890625 1.691406,0.929688 1.820313,1 m 0.089843,0.101563 c 0,0.117187 -0.339843,0.207031 -0.769531,0.207031 -0.429687,0 -0.777344,-0.089844 -0.777344,-0.207031 l 0,-0.230469 c 0,0 0,-0.03125 0,-0.0625 l 0,-0.597656 C 0.363281,0.0898438 0.710938,0 1.140625,0 1.570313,0 1.910156,0.0898438 1.910156,0.210938 Z"
       id="path15"
       inkscape:connector-curvature="0" />
    <path
       style="fill:#000000;fill-opacity:1;fill-rule:nonzero;stroke:none"
       d="M 1.761719,0.648438 C 1.742188,0.640625 1.710938,0.628906 1.691406,0.628906 l 0,-0.4375 c 0.03125,0.007813 0.050782,0.007813 0.070313,0.019532 z"
       id="path17"
       inkscape:connector-curvature="0" />
  </g>
  <rect
     style="opacity:1;fill:none;fill-opacity:1;fill-rule:nonzero"
     id="rect4151"
     width="8.3692045"
     height="5.1869025"
     x="-5.5878224"
     y="-4.7859826" />
</svg>
