<?xml version="1.0" encoding="utf-8"?>
<!-- Generator: Adobe Illustrator 19.2.0, SVG Export Plug-In . SVG Version: 6.00 Build 0)  -->
<svg version="1.1" id="Layer_1" xmlns="http://www.w3.org/2000/svg" xmlns:xlink="http://www.w3.org/1999/xlink" x="0px" y="0px"
	 viewBox="-527 576.2 57 53.8" style="enable-background:new -527 576.2 57 53.8;" xml:space="preserve">
<g>
	<g>
		<path d="M-511.1,605.4C-522,605.9-522,620.3-522,628l1,0l1,0c0-9.7,0.7-20.2,9-20.5c3.1-0.1,5.6,0.7,7.5,2.4
			c2.8,2.6,3.4,6.8,3.5,9.2h-3c-0.6,0-1,0.4-1,1v3c0,0,0,0,0,0c-3.3,0-5.5-0.9-5.6-0.9c-0.5-0.2-1.1,0-1.3,0.5
			c-0.2,0.5,0,1.1,0.5,1.3c0.1,0,2.5,1.1,6.3,1.1c0,0,0.1,0,0.1,0v3c0,0.6,0.4,1,1,1s1-0.4,1-1v-7h3c0.6,0,1-0.4,1-1
			c0-2.3-0.4-8-4.2-11.6C-504.4,606.3-507.4,605.3-511.1,605.4z"/>
		<circle cx="-506.6" cy="615.2" r="1.3"/>
		<path d="M-471,577h-24c-0.6,0-1,0.4-1,1v16c0,0.6,0.4,1,1,1h11v4h-6c-0.6,0-1,0.4-1,1c0,0.6,0.4,1,1,1h14c0.6,0,1-0.4,1-1
			c0-0.6-0.4-1-1-1h-6v-4h11c0.6,0,1-0.4,1-1v-16C-470,577.4-470.4,577-471,577z M-472,593h-22v-14h22V593z"/>
		<path d="M-471.2,627.4v-4.5c0-0.3-0.1-0.5-0.3-0.7l-12.4-12.4c0,0,0-0.1-0.1-0.1c0,0-0.1-0.1-0.1-0.1l-3.2-3.2
			c-0.4-0.4-1-0.4-1.4,0l-4.9,4.9c-0.4,0.4-0.4,1,0,1.4l15.9,15.9c0.2,0.2,0.4,0.3,0.7,0.3h4.5l0.9,0.9c0.2,0.2,0.5,0.3,0.7,0.3
			c0.3,0,0.5-0.1,0.7-0.3c0.4-0.4,0.4-1,0-1.4L-471.2,627.4z M-488.1,608.4l1.9,1.9l-3.5,3.5l-1.9-1.9L-488.1,608.4z M-473.2,626.8
			h-3.5l-11.5-11.5l3.5-3.5l11.5,11.5V626.8z"/>
		<path d="M-511,598.2c6.1,0,11-4.9,11-11c0-6.1-4.9-11-11-11c-6.1,0-11,4.9-11,11c0,2.6,0.9,5,2.4,6.9l-7.2,7.2
			c-0.4,0.4-0.4,1,0,1.4c0.2,0.2,0.5,0.3,0.7,0.3c0.3,0,0.5-0.1,0.7-0.3l7.2-7.2C-516.2,597.2-513.7,598.2-511,598.2z M-520,587.2
			c0-5,4-9,9-9c5,0,9,4,9,9c0,5-4,9-9,9c-2.2,0-4.2-0.8-5.8-2.1c-0.5-0.4-1-0.9-1.4-1.4C-519.3,591.2-520,589.3-520,587.2z"/>
	</g>
</g>
</svg>
