<?xml version="1.0" encoding="utf-8"?>
<!-- Generator: Adobe Illustrator 19.2.0, SVG Export Plug-In . SVG Version: 6.00 Build 0)  -->
<svg fill="#837e7b" version="1.1" id="Layer_1" xmlns="http://www.w3.org/2000/svg" xmlns:xlink="http://www.w3.org/1999/xlink" x="0px" y="0px"
	 viewBox="0 0 81.7 42.5" style="enable-background:new 0 0 81.7 42.5;" xml:space="preserve">
<g>
	<g>
		<path d="M17.8,18.7v10.8c0,2.2,0.8,3.3,2.7,3.3c1.7,0,2.7-0.8,3.6-2c0.2-0.3,2.7,1.4,2.7,4.6c0,4.2-3.8,7.1-9.7,7.1
			c-7.7,0-11.3-3.9-11.3-11.6V18.7H5.1c-3.3,0-5.1-1.5-5.1-4.2v-0.7c0-2.9,1.7-4.5,5.1-4.5l0.7,0V6.1c0-4,2-6.1,5.6-6.1h1
			c3.3,0,5.6,1.4,5.6,6.1v3.1"/>
		<path d="M20,13.6c2.2-3,5-5.1,9.6-5.1c5.5,0,8.7,2.6,10,6.5c2.3-3.7,5.2-6.5,10.6-6.5c8.3,0,11.1,5.5,11.1,12.4v14.9
			c0,4.5-2.3,6.1-5.5,6.1h-1.3c-3.4,0-5.7-1.4-5.7-6.1V23.2c0-3-1.3-4.5-3.8-4.5c-1.8,0-3.4,1-4.3,2.3v14.7c0,4.6-2.3,6.1-5.5,6.1
			h-1.2c-3.4,0-5.7-1.4-5.7-6.1V23.3c0-3.1-1.3-4.6-3.8-4.6c-1.8,0-3.4,1-4.3,2.3"/>
	</g>
	<path d="M60,15c2.3-3.7,5.2-6.5,10.6-6.5c8.3,0,11.1,5.5,11.1,12.4v14.9c0,4.5-2.3,6.1-5.5,6.1h-1.3c-3.4,0-5.7-1.4-5.7-6.1V23.2
		c0-3-1.3-4.5-3.8-4.5c-1.8,0-3.4,1-4.3,2.3L60,15z"/>
</g>
</svg>
