<?xml version="1.0" encoding="utf-8"?>
<!-- Generator: Adobe Illustrator 19.2.0, SVG Export Plug-In . SVG Version: 6.00 Build 0)  -->
<svg fill="#7b7673" version="1.1" id="Layer_1" xmlns="http://www.w3.org/2000/svg" xmlns:xlink="http://www.w3.org/1999/xlink" x="0px" y="0px"
	 viewBox="0 0 375 67.2" style="enable-background:new 0 0 375 67.2;" xml:space="preserve">
<g>
	<path d="M362.7,48.4c-1.2,0-1.9-0.3-2.1-1.3V23.9c0-1.5-0.1-2.7-0.4-3.6c-0.3-0.9-0.7-1.7-1.3-2.2c-0.6-0.5-1.4-0.9-2.3-1
		c-0.9-0.2-2-0.3-3.3-0.3h-18V0h-5.7v47.1l-0.1,0c0,0.9-1,1.3-2.1,1.3h-7.9v0h-1c-1.2,0-1.9-0.2-2.3-0.6c-0.3-0.4-0.5-1.1-0.5-2.1
		V22.2h8.9v-5.4h-8.9V3h-5.7v13.8H292h-2h-14.3c-1.3,0-2.4,0.1-3.3,0.3c-0.9,0.2-1.7,0.5-2.3,1c-0.6,0.5-1.1,1.2-1.3,2.2
		c-0.3,0.9-0.4,2.1-0.4,3.6v22.7c0,0.6,0,1.2,0.1,1.7H263c-1.2,0-2.1-0.4-2.1-1.3l0,0V23.9c0-1.5-0.1-2.7-0.4-3.6
		c-0.3-0.9-0.7-1.7-1.3-2.2c-0.6-0.5-1.4-0.9-2.3-1c-0.9-0.2-2-0.3-3.3-0.3h-16.3c-1.3,0-2.4,0.1-3.3,0.3c-0.9,0.2-1.7,0.5-2.3,1
		c-0.6,0.5-1.1,1.2-1.3,2.2c-0.3,0.9-0.4,2.1-0.4,3.6v23.2c0,0.9-1,1.3-2.1,1.3H204v0h-1.7h-0.1c-1,0-1.8,0-2.4-0.1
		c-0.6,0-1.1-0.2-1.4-0.3c-0.3-0.2-0.6-0.4-0.7-0.8c-0.1-0.4-0.2-0.8-0.2-1.5v-6.2h18c1.3,0,2.4-0.1,3.3-0.3c0.9-0.2,1.7-0.5,2.3-1
		c0.6-0.5,1.1-1.2,1.3-2.2c0.3-0.9,0.4-2.1,0.4-3.6v-8.4c0-1.5-0.1-2.7-0.4-3.6c-0.3-0.9-0.7-1.7-1.3-2.2c-0.6-0.5-1.4-0.9-2.3-1
		c-0.9-0.2-2-0.3-3.3-0.3h-16.3c-1.3,0-2.4,0.1-3.3,0.3c-0.9,0.2-1.7,0.5-2.3,1c-0.6,0.5-1.1,1.2-1.3,2.2c-0.3,0.9-0.4,2.1-0.4,3.6
		v22.7c0,0.6,0,1.2,0.1,1.7h-10.6c-1.2,0-1.9-0.2-2.3-0.6c-0.3-0.4-0.5-1-0.5-2v-10h0V0H173v45.8c0,0.9-0.2,1.6-0.5,2
		c-0.3,0.4-1.1,0.6-2.3,0.6h-6.1h-4h-15.3c-1,0-1.8,0-2.4-0.1c-0.6,0-1.1-0.2-1.4-0.3c-0.3-0.2-0.6-0.4-0.7-0.8
		c-0.1-0.4-0.2-0.8-0.2-1.5v-6.2h18c1.3,0,2.4-0.1,3.3-0.3c0.9-0.2,1.7-0.5,2.3-1c0.6-0.5,1.1-1.2,1.3-2.2c0.3-0.9,0.4-2.1,0.4-3.6
		v-8.4c0-1.5-0.1-2.7-0.4-3.6c-0.3-0.9-0.7-1.7-1.3-2.2c-0.6-0.5-1.4-0.9-2.3-1c-0.9-0.2-2-0.3-3.3-0.3h-4.1h-12.2h-11.8
		c-1.3,0-2.4,0.1-3.3,0.3c-0.9,0.2-1.7,0.5-2.3,1c-0.6,0.5-1.1,1.2-1.3,2.2c-0.1,0.2-0.1,0.4-0.1,0.6L114.6,47l-8.7-27.3l-0.1,0
		c-0.3-0.7-0.7-1.2-1.1-1.6c-0.6-0.5-1.4-0.9-2.3-1c-0.9-0.2-2-0.3-3.3-0.3H87.2H72.7h-3.6H60h-0.2v0c-1.2,0-2.2,0.1-3.1,0.3
		c-0.9,0.2-1.7,0.5-2.3,1c-0.6,0.5-1.1,1.2-1.3,2.2c-0.2,0.6-0.3,1.2-0.4,2.1l-6,24.7l-5.7-24.9c0,0-0.7-3.2-1.5-4
		c-0.8-0.8-1.1-1.3-3.1-1.3c-2,0-2.5,0.6-3.2,1.3c-0.7,0.7-1.3,4-1.3,4L26.2,47l-6.3-26.2l-0.1,0c0-0.2-0.1-0.3-0.1-0.5
		c-0.3-0.9-0.7-1.7-1.3-2.2c-0.6-0.5-1.4-0.9-2.3-1c-0.9-0.2-2-0.3-3.2-0.3l0,0l0,0c0,0-0.1,0-0.1,0H0v5.4h12.5
		c1.2,0,1.9,0.3,2.1,1.3l0,0l6.6,24.9c0,0,0.7,3,1.6,3.9c0.9,0.9,1.8,1.4,3.3,1.4c1.4,0,2.6-0.4,3.4-1.3c0.9-0.9,1.3-4.1,1.3-4.1
		l5.4-24.3l5.6,24.3c0,0,0.6,3.1,1.6,4.1s2.1,1.3,3.2,1.3c1.1,0,2-0.2,3.1-1.3s1.8-4.1,1.8-4.1l6.5-25c0.3-0.9,1-1.2,2.1-1.2h8.9
		h3.6h13.4c1.2,0,1.9,0.2,2.3,0.6c0.3,0.4,0.5,1.1,0.5,2.1v5.8h-18c-1.3,0-2.4,0.1-3.3,0.3c-0.9,0.2-1.7,0.5-2.3,1
		c-0.6,0.5-1.1,1.2-1.3,2.2c-0.3,0.9-0.4,2.1-0.4,3.6v8.9c0,1.5,0.1,2.7,0.4,3.6c0.3,0.9,0.7,1.7,1.3,2.2c0.6,0.5,1.4,0.9,2.3,1
		c0.9,0.2,2,0.3,3.3,0.3h16.3c1.3,0,2.4-0.1,3.3-0.3c0.9-0.2,1.7-0.5,2.3-1c0.6-0.5,1.1-1.2,1.3-2.2c0.3-0.9,0.4-2.1,0.4-3.6V23.9
		c0-0.6,0-1.2-0.1-1.7h4.2c1.2,0,1.9,0.2,2.3,0.6l0,0l8.5,25.6c0,0,0.8,3.3,1.5,3.9c0.6,0.6,1.8,1.4,3.6,1.4c1.8,0,2.9-0.7,3.5-1.3
		c0.6-0.6,1.7-4.1,1.7-4.1l8.5-25.6l0.1,0c0.3-0.4,1.1-0.6,2.3-0.6h4.1c-0.1,0.5-0.1,1.1-0.1,1.7v22.7c0,1.5,0.1,2.7,0.4,3.6
		c0.3,0.9,0.7,1.7,1.3,2.2c0.6,0.5,1.4,0.9,2.3,1c0.9,0.2,2,0.3,3.3,0.3h18.2h4h2.2c1.3,0,2.4-0.1,3.3-0.3c0.9-0.2,1.7-0.5,2.3-1
		c0.6-0.5,1.1-1.2,1.3-2.2c0-0.1,0.1-0.1,0.1-0.2c0,0.1,0,0.1,0,0.2c0.3,0.9,0.7,1.7,1.3,2.2c0.6,0.5,1.4,0.9,2.3,1
		c0.9,0.2,2,0.3,3.3,0.3h18.9h3h1.7h17.6h6.5c1.3,0,2.4-0.1,3.3-0.3c0.9-0.2,1.7-0.5,2.3-1c0.6-0.5,1.1-1.2,1.3-2.2
		c0.3-0.9,0.4-2,0.4-3.3l0,0v-0.3c0,0,0,0,0,0h0V24.9c0-1,0.2-1.7,0.5-2.1c0.3-0.4,1.1-0.6,2.2-0.6h14.2c1.2,0,1.9,0.2,2.3,0.6
		c0.3,0.4,0.5,1.1,0.5,2.1v21.9l0,0c0,1.4,0.2,2.5,0.4,3.5c0.3,0.9,0.7,1.7,1.3,2.2c0.6,0.5,1.4,0.9,2.3,1c0.5,0.1,1,0.2,1.5,0.2
		l0.1,0.1v-0.1c0.5,0,1.1,0.1,1.7,0.1h13.1h11h7v5.4c0,1-0.2,1.7-0.5,2.1c-0.3,0.4-1.1,0.6-2.3,0.6H270v5.4h22
		c1.3,0,2.4-0.1,3.3-0.3c0.9-0.2,1.7-0.5,2.3-1c0.6-0.5,1.1-1.2,1.3-2.2c0.3-0.9,0.4-2.2,0.4-3.6V23.9c0-0.6,0-1.2-0.1-1.7h10.6
		v24.4c0,1.5,0.1,2.7,0.4,3.6c0.3,0.9,0.7,1.7,1.3,2.2c0.6,0.5,1.4,0.9,2.3,1c0.9,0.2,2,0.3,3.3,0.3h2.1h5.1h3.2
		c1.3,0,2.4-0.1,3.3-0.3c0.9-0.2,1.7-0.5,2.3-1c0.6-0.5,1.1-1.2,1.3-2.2c0.3-0.9,0.4-2,0.4-3.4l0.1-0.1V22.2h16.9
		c1.2,0,1.9,0.2,2.2,0.6c0.3,0.4,0.5,1.1,0.5,2.1v22.4l0,0c0,1.2,0.2,2.2,0.4,3c0.3,0.9,0.7,1.7,1.3,2.2c0.6,0.5,1.4,0.9,2.3,1
		c0.5,0.1,1,0.2,1.5,0.2l0.1,0.1v-0.1c0.5,0,1.1,0.1,1.7,0.1H375v-5.4H362.7z M197.7,26.2c0-0.6,0-1.2,0-1.7c0-0.5,0.1-0.9,0.3-1.3
		c0.2-0.4,0.4-0.6,0.8-0.8c0.4-0.2,0.9-0.3,1.7-0.3h14.2c1.2,0,1.9,0.2,2.3,0.6c0.3,0.4,0.5,1.1,0.5,2.1v6.5c0,1-0.2,1.7-0.5,2.1
		c-0.3,0.4-1.1,0.6-2.3,0.6h-16.9V26.2z M88.8,45.7c0,1-0.2,1.7-0.5,2.1c-0.3,0.4-1.1,0.6-2.3,0.6H71.9c-1.2,0-1.9-0.2-2.3-0.6
		c-0.3-0.4-0.5-1.1-0.5-2.1v-7c0-1,0.2-1.7,0.5-2.1c0.3-0.4,1.1-0.6,2.3-0.6h16.9V45.7z M154.1,22.2h3c1.2,0,1.9,0.2,2.3,0.6
		c0.3,0.4,0.5,1.1,0.5,2.1v6.5c0,1-0.2,1.7-0.5,2.1c-0.3,0.4-1.1,0.6-2.3,0.6h-16.9v-7.9c0-0.6,0-1.2,0-1.7c0-0.5,0.1-0.9,0.3-1.3
		c0.2-0.4,0.4-0.6,0.8-0.8c0.4-0.2,0.9-0.3,1.7-0.3H154.1z M293.2,22.8c0.3,0.4,0.5,1.1,0.5,2.1v23.5h-7v0h-10
		c-1.1,0-1.8-0.2-2.1-0.6c-0.3-0.4-0.5-1.1-0.5-2.1V24.9c0-1,0.2-1.7,0.5-2.1c0.3-0.4,1.1-0.6,2.3-0.6H290h0.9
		C292.1,22.2,292.8,22.4,293.2,22.8z"/>
</g>
</svg>
