<svg xmlns="http://www.w3.org/2000/svg" viewBox="0 0 70.3 64"><path d="M60.5 64h-.4c-.8-.1-1.3-.9-1.3-1.7v-2.6H45.3c-1.4 0-2.6-1.2-2.6-2.6V51c0-1.4 1.2-2.6 2.6-2.6h13.4v-2.6c0-.7.5-1.5 1.3-1.7.8-.1 1.6.1 2.2.7l7.3 7.3c.5.5.8 1.1.8 1.8s-.3 1.3-.8 1.8L62.2 63c-.4.8-1.1 1-1.7 1zM45.3 50.4c-.4 0-.7.3-.7.7v6.1c0 .4.3.7.7.7h13.8c.8 0 1.5.7 1.5 1.5v2.7c.1 0 .2-.1.3-.2l7.3-7.3c.1-.1.2-.3.2-.5s-.1-.4-.2-.5l-7.3-7.3c-.1-.1-.2-.1-.3-.2v2.7c0 .8-.7 1.5-1.5 1.5H45.3zM9.9 19.8c-.7 0-1.3-.3-1.8-.7L.8 11.8c-.5-.5-.8-1.2-.8-1.9s.3-1.3.8-1.8L8.1.8c.6-.6 1.4-.9 2.2-.8.8.1 1.3.9 1.3 1.7v2.6H25c1.4 0 2.6 1.2 2.6 2.6V13c0 1.4-1.2 2.6-2.6 2.6H11.6v2.6c0 .7-.5 1.5-1.3 1.7-.1-.1-.3-.1-.4-.1zM9.7 1.9c-.1 0-.2.1-.3.2L2.1 9.4c-.1.2-.2.3-.2.5s.1.4.2.5l7.3 7.3c.1.1.2.1.3.2v-2.7c0-.8.7-1.5 1.5-1.5H25c.4 0 .7-.3.7-.7V6.8c0-.4-.3-.7-.7-.7H11.2c-.8 0-1.5-.7-1.5-1.5V1.9zM33.9 57.2H4.5c-.5 0-.9-.2-1.1-.6-.2-.4-.2-.9.1-1.3L34.8 9.8c.3-.5 1-.9 1.6-.9h29.4c.5 0 .9.2 1.1.6s.2.9-.1 1.3L35.6 56.4c-.4.5-1.1.8-1.7.8zM5.7 55.3h28.2s.1 0 .1-.1l30.6-44.4H36.4s-.1 0-.1.1L5.7 55.3z"/></svg>