<svg xmlns="http://www.w3.org/2000/svg" viewBox="-535.6 557.2 73.3 87.6"><path d="M-504.6 573.738l-11.3 5.7v14.2l11.3 5.7 11.3-5.7v-14.2l-11.3-5.7zm0 5.2l3.6 1.8v3.8l-3.6 1.8-3.6-1.8v-3.8l3.6-1.8zm0 2.2l-1.6.8v1.3l1.6.8 1.6-.8v-1.3l-1.6-.8zm-6.2 5.3h2v3.3l4.2 2.1 4.2-2.1v-3.3h2v4.5l-6.2 3.1-6.2-3.1v-4.5zM-520.5 605.038v2h31.7v-2h-31.7zM-520.5 612.838v2h27.2c.7-.7 1.4-1.4 2.2-2h-29.4z"/><path d="M-535.6 557.238v82h40.7c-.5-.6-.9-1.3-1.3-2h-37.5v-78h58v49.8c.7.1 1.3.3 2 .5v-52.3h-61.9z"/><path d="M-520.5 620.638v2h22.8c.2-.7.4-1.3.7-2h-23.5zM-479.1 611.238c-9.3 0-16.8 7.5-16.8 16.8s7.5 16.8 16.8 16.8 16.8-7.5 16.8-16.8-7.6-16.8-16.8-16.8zm0 2c8.2 0 14.8 6.6 14.8 14.8s-6.6 14.8-14.8 14.8-14.8-6.6-14.8-14.8 6.6-14.8 14.8-14.8z"/><path d="M-475 623.638l-1.4 1.4 2.9 2.9-2.9 2.9 1.4 1.4 4.4-4.3-4.4-4.3zM-478.3 621.338l-3.6 12.7 1.9.6 3.6-12.7-1.9-.6zM-483.3 623.638l-4.4 4.3 4.4 4.3 1.4-1.4-2.9-2.9 2.9-2.9-1.4-1.4z"/></svg>