<svg id="Layer_1" xmlns="http://www.w3.org/2000/svg" viewBox="0 0 81.1 75.8"><style>.st0{fill-rule:evenodd;clip-rule:evenodd;}</style><path d="M4.2 32.1v4.1H11v3.3H4.2v3.9H11v3.3H0V28.8h10.9v3.3H4.2zM33.3 46.7h-4V35.6l-3.9 11.1h-3.1l-4-11.1v11.1h-4V28.8H19l4.8 12.5 4.7-12.5h4.7v17.9zM36.7 28.8h7.5c4 0 6.5 3 6.5 6.5s-2.6 6.5-6.5 6.5h-3.4v5h-4.2v-18zm9.9 6.5c0-1.7-1.1-3.1-2.9-3.1h-2.8v6.2h2.8c1.8 0 2.9-1.4 2.9-3.1zM47.8 42.9c1.2 0 2 .9 2 2s-.9 2-2 2-2-.9-2-2c-.1-1.1.8-2 2-2zM57.2 32.1v4.1H64v3.3h-6.8v3.9H64v3.3H53.1L53 28.8h10.9v3.3h-6.7zM76.5 28.8h4.6l-5.3 9 5.3 9h-4.6L73.3 41l-3.1 5.8h-4.6l5.3-9-5.3-9h4.6l3.1 5.8 3.2-5.8z"/><path class="st0" d="M40.6 75.8l-5.1-12.3-9.4 9.4V59.6l-12.3 5.1 5.1-12.3H5.6l1.9-1.9H28v6.3l5.8-2.4 2.4 5.8 4.4-4.4 4.4 4.4 2.4-5.8 5.8 2.4v-6.2h20.5l1.9 1.9H62.3l5.1 12.3-12.3-5.1V73l-9.4-9.4-5.1 12.2zm0-5l3.6-8.8-3.6-3.6L37 62l3.6 8.8zM28 68.3l6.7-6.7-2-4.8-4.7 2v9.5zm25.2 0v-9.5l-4.7-2-2 4.8 6.7 6.7zm-35.9-7.1l8.8-3.6v-5.1H21l-3.7 8.7zm46.6 0l-3.6-8.8h-5.1v5.1l8.7 3.7zM28 25.3H7.5l-1.9-1.9h13.3l-5.1-12.3 12.3 5.1V2.9l9.4 9.4L40.6 0l5.1 12.3 9.4-9.4v13.3l12.3-5.1-5.1 12.3h13.3l-1.9 1.9H53.2v-6.2l-5.8 2.4-2.4-5.8-4.4 4.4-4.4-4.4-2.4 5.8-5.8-2.4v6.2zm-1.9-1.9v-5.1l-8.8-3.7 3.7 8.8h5.1zm29 0h5.1l3.6-8.8-8.8 3.7v5.1zM32.8 19l2-4.7L28 7.5V17l4.8 2zm15.6 0l4.7-2V7.5l-6.7 6.7 2 4.8zm-7.8-1.6l3.6-3.6L40.6 5 37 13.8l3.6 3.6z"/></svg>