<svg xmlns="http://www.w3.org/2000/svg" viewBox="-567.3 577 32.5 48"><path d="M-566.3 625c-.6 0-1-.4-1-1v-46c0-.6.4-1 1-1s1 .4 1 1v46c0 .6-.4 1-1 1z"/><path d="M-559.8 604.5c-2.3 0-4.7-.7-7.1-2.8-.2-.2-.3-.5-.3-.8V581c0-.4.2-.7.6-.9.4-.2.8-.1 1.1.2 4.6 4 9.3 2 14.2-.2 5-2.2 10.8-4.6 16.3.2.2.2.3.5.3.8V601c0 .4-.2.7-.6.9-.4.2-.8.1-1.1-.2-4.6-4-9.3-2-14.2.2-2.9 1.3-6 2.6-9.2 2.6zm-5.5-4c4.5 3.6 9.1 1.6 13.9-.4 4.5-2 9.6-4.2 14.7-1.1v-17.5c-4.5-3.6-9.1-1.6-13.9.4-4.5 2-9.6 4.2-14.7 1.1v17.5z"/></svg>