<svg class="hello-alfred-logo" viewBox="0 0 200 36" version="1.1" xmlns="http://www.w3.org/2000/svg" xmlns:xlink="http://www.w3.org/1999/xlink" xmlns:sketch="http://www.bohemiancoding.com/sketch/ns">
    <g id="Page-1" stroke="none" stroke-width="1" fill="none" fill-rule="evenodd" sketch:type="MSPage">
        <g id="hello-alfred-logo" sketch:type="MSArtboardGroup">
            <g id="Group" sketch:type="MSLayerGroup">
                <path d="M80.699,23.194 L85.215,11.377 L89.961,23.194 L80.699,23.194 L80.699,23.194 Z M111.595,30.586 L111.595,1 L102.355,1 L102.355,2.167 C104.738,2.167 104.835,4.453 104.835,4.988 L104.835,30.586 C104.835,31.463 104.47,33.213 103.339,33.213 C101.926,33.213 101.133,30.702 99.438,26.694 L88.813,1.116 L87.452,1.116 L76.655,27.765 C75.197,31.413 74.626,33.066 72,33.455 L72,34.671 L81.872,34.671 L81.872,33.455 C80.218,33.357 77.884,33.211 77.884,31.364 C77.884,30.586 78.552,28.592 79.914,25.09 L90.69,25.09 C91.372,26.647 92.928,30.245 92.928,31.558 C92.928,33.163 92.052,33.211 89.037,33.455 L89.037,34.671 L113.978,34.671 L113.978,33.503 C112.081,33.503 111.595,31.995 111.595,30.586 L111.595,30.586 Z" id="Fill-165" fill="#2E2F2C" sketch:type="MSShapeGroup"></path>
                <path d="M117,33.436 C118.653,33.241 119.552,33.096 119.552,30.519 L119.552,14.325 L117.165,14.325 L117.165,12.185 L119.552,12.185 C119.552,7.468 119.6,1 128.402,1 C131.369,1 135.016,2.509 135.016,5.863 C135.016,7.566 133.898,8.878 131.952,8.878 C129.91,8.878 129.082,7.225 129.082,6.252 C129.082,4.94 130.153,4.162 130.153,3.433 C130.153,2.654 129.277,2.509 128.694,2.509 C126.36,2.509 126.311,4.94 126.311,6.252 L126.311,12.185 L130.542,12.185 L130.542,14.325 L126.311,14.325 L126.311,29.594 C126.311,32.95 127.138,33.338 130.299,33.436 L130.299,34.604 L117,34.604 L117,33.436" id="Fill-166" fill="#2E2F2C" sketch:type="MSShapeGroup"></path>
                <path d="M145.935,35.002 L133,35.002 L133,33.834 C134.557,33.543 135.626,33.348 135.626,30.917 L135.626,16.619 C135.626,14.188 134.459,13.945 133,13.75 L133,12.584 L142.191,12.584 L142.191,16.425 L142.287,16.425 C143.309,14.917 145.498,12 148.66,12 C151.965,12 152.695,14.626 152.695,15.793 C152.695,17.057 152.014,19.051 149.583,19.051 C146.762,19.051 146.811,16.182 145.254,16.182 C144.525,16.182 142.386,17.252 142.386,20.801 L142.386,29.992 C142.386,32.958 142.969,33.688 145.935,33.834 L145.935,35.002" id="Fill-167" fill="#2E2F2C" sketch:type="MSShapeGroup"></path>
                <path d="M166.275,21.287 C166.226,19.781 166.226,17.252 165.837,15.793 C165.545,14.723 164.913,13.507 163.211,13.507 C161.411,13.507 159.76,14.577 159.76,21.287 L166.275,21.287 L166.275,21.287 Z M172.5,29.604 C169.533,34.126 166.762,35.682 162.872,35.682 C157.96,35.682 153,32.084 153,23.767 C153,16.571 157.425,12 163.017,12 C171.478,12 172.11,20.462 172.256,23.086 L160.002,23.086 C160.148,27.22 161.218,32.18 165.837,32.18 C168.706,32.18 170.41,30.041 171.333,28.923 L172.5,29.604 L172.5,29.604 Z" id="Fill-168" fill="#2E2F2C" sketch:type="MSShapeGroup"></path>
                <path d="M190.124,17.436 C190.124,17.387 189.055,14.421 186.331,14.421 C182.878,14.421 182.197,18.797 182.197,23.514 C182.197,26.335 182.197,32.656 186.089,32.656 C188.325,32.656 190.124,29.788 190.124,29.253 L190.124,17.436 L190.124,17.436 Z M199.752,35.38 L190.27,35.332 L190.27,32.17 C188.52,34.018 187.158,35.38 183.51,35.38 C179.475,35.38 175,31.296 175,24.195 C175,15.735 179.815,11.698 184.386,11.698 C187.303,11.698 188.957,13.448 190.124,14.713 L190.124,4.988 C190.124,2.41 189.103,2.362 186.429,2.167 L186.429,1 L196.884,1 L196.884,31.442 C196.884,32.754 196.98,34.164 199.752,34.262 L199.752,35.38 L199.752,35.38 Z" id="Fill-169" fill="#2E2F2C" sketch:type="MSShapeGroup"></path>
                <path d="M12,9.03 C12,8.455 12.455,8 13.03,8 C13.604,8 14.059,8.455 14.059,9.03 L14.059,11.783 L17.855,11.783 L17.855,9.03 C17.855,8.455 18.309,8 18.884,8 C19.459,8 19.914,8.455 19.914,9.03 L19.914,16.488 C19.914,17.063 19.459,17.518 18.884,17.518 C18.309,17.518 17.855,17.063 17.855,16.488 L17.855,13.681 L14.059,13.681 L14.059,16.488 C14.059,17.063 13.604,17.518 13.03,17.518 C12.455,17.518 12,17.063 12,16.488 L12,9.03" id="Fill-170" fill="#DE5D55" sketch:type="MSShapeGroup"></path>
                <path d="M23,16.327 L23,9.029 C23,8.454 23.455,8 24.03,8 L29.216,8 C29.724,8 30.138,8.414 30.138,8.922 C30.138,9.43 29.724,9.831 29.216,9.831 L25.046,9.831 L25.046,11.729 L28.614,11.729 C29.122,11.729 29.537,12.144 29.537,12.651 C29.537,13.159 29.122,13.56 28.614,13.56 L25.046,13.56 L25.046,15.525 L29.283,15.525 C29.791,15.525 30.205,15.94 30.205,16.447 C30.205,16.955 29.791,17.356 29.283,17.356 L24.03,17.356 C23.455,17.356 23,16.902 23,16.327" id="Fill-172" fill="#DE5D55" sketch:type="MSShapeGroup"></path>
                <path d="M34,9.03 C34,8.455 34.454,8 35.029,8 C35.603,8 36.058,8.455 36.058,9.03 L36.058,15.566 L39.867,15.566 C40.389,15.566 40.803,15.98 40.803,16.502 C40.803,17.023 40.389,17.437 39.867,17.437 L35.029,17.437 C34.454,17.437 34,16.983 34,16.408 L34,9.03" id="Fill-174" fill="#DE5D55" sketch:type="MSShapeGroup"></path>
                <path d="M43,9.03 C43,8.455 43.454,8 44.029,8 C44.604,8 45.058,8.455 45.058,9.03 L45.058,15.566 L48.867,15.566 C49.389,15.566 49.803,15.98 49.803,16.502 C49.803,17.023 49.389,17.437 48.867,17.437 L44.029,17.437 C43.454,17.437 43,16.983 43,16.408 L43,9.03" id="Fill-176" fill="#DE5D55" sketch:type="MSShapeGroup"></path>
                <path d="M58.793,12.866 L58.793,12.839 C58.793,11.235 57.616,9.898 55.959,9.898 C54.301,9.898 53.152,11.208 53.152,12.812 L53.152,12.839 C53.152,14.443 54.328,15.78 55.985,15.78 C57.643,15.78 58.793,14.47 58.793,12.866 L58.793,12.866 Z M51,12.866 L51,12.839 C51,10.179 53.098,8 55.985,8 C58.873,8 60.945,10.152 60.945,12.812 L60.945,12.839 C60.945,15.499 58.846,17.678 55.959,17.678 C53.072,17.678 51,15.526 51,12.866 L51,12.866 Z" id="Fill-178" fill="#DE5D55" sketch:type="MSShapeGroup"></path>
                <path d="M57.856,33.754 L51.908,24.709 L4.981,24.709 C2.234,24.709 -5.68434189e-14,22.475 -5.68434189e-14,19.728 L-5.68434189e-14,4.981 C-5.68434189e-14,2.234 2.234,0 4.981,0 L66.663,0 C69.409,0 71.643,2.234 71.643,4.981 L71.643,19.728 C71.643,22.475 69.409,24.709 66.663,24.709 L60.129,24.709 C59.509,24.709 59.007,24.206 59.007,23.587 C59.007,22.967 59.509,22.465 60.129,22.465 L66.663,22.465 C68.172,22.465 69.4,21.237 69.4,19.728 L69.4,4.981 C69.4,3.471 68.172,2.244 66.663,2.244 L4.981,2.244 C3.471,2.244 2.243,3.471 2.243,4.981 L2.243,19.728 C2.243,21.237 3.471,22.465 4.981,22.465 L52.512,22.465 C52.89,22.465 53.242,22.655 53.45,22.971 L59.731,32.521 C60.071,33.039 59.927,33.734 59.41,34.074 C59.22,34.2 59.007,34.259 58.794,34.259 C58.43,34.259 58.072,34.081 57.856,33.754 Z" id="Fill-180" fill="#DE5D55" sketch:type="MSShapeGroup"></path>
            </g>
        </g>
    </g>
</svg>
