<svg fill="#989590" xmlns="http://www.w3.org/2000/svg" viewBox="0 0 372 319"><path d="M256.6.2c1.3 12.9 3.1 25.7 3.9 38.7.9 13.8.8 27.6 1.3 41.4.1 2.4.8 4.9 1.8 7.1 1.7 3.8 3.7 7.5 6 11 6.2 9.4 9 19.6 7.9 30.8-.4 3.7.5 6.5 4 8.9 1.8 1.3 2.9 4.8 3 7.3.3 11.2 0 22.3.3 33.5.1 4.2.8 8.6 2 12.7 3.1 10.2 6.5 20.3 10.1 30.3.6 1.7 2.4 3.1 3.7 4.6 1.3-1.6 3.2-3.1 3.8-4.9 5.8-17.7 11.4-35.5 16.9-53.3 1.4-4.4 3.6-6.3 8.6-6.1 11.5.5 23 .1 34.5.2 2.3 0 4.5.3 7.8.6-1.5 3.6-2.6 6.4-3.9 9.2-12.6 26.6-25 53.4-37.9 79.8-7 14.3-8.4 29.2-7.4 44.7.4 6 0 12 0 18 0 3.1-1.1 4.4-4.4 4.4-12.5-.1-25-.2-37.5 0-4.1.1-5.1-1.7-5-5.4.2-7.5-.3-15 .3-22.5 1-14.2-1.7-27.4-7.8-40.1-10.2-21.3-20.1-42.7-30-64.1-.6.1-1.2.3-1.8.4v124c0 7.7 0 7.7-7.5 7.7-6.8 0-13.7.2-20.5-.1-2-.1-4.7-1.2-5.7-2.7-16.6-23.5-33-47.2-49.6-70.8-1-1.4-2.8-2.3-4.3-3.4-.9 1.8-2.5 3.6-2.6 5.3-.1 21.7 0 43.3 0 65 0 6.7 0 6.7-6.6 6.7h-33.5c-.1-2.1-.3-3.9-.3-5.7 0-48.5.1-97-.1-145.5 0-4.5 1.4-5.7 5.7-5.6 9.3.2 18.7.1 28 0 3.5 0 5.8 1.3 7.7 4.2 14.2 21.4 28.5 42.6 42.8 63.9.6.8 1 1.8 1.8 2.4.8.7 2.4 1.6 2.9 1.3.9-.6 1.8-2 1.8-3.1.1-3.2-.3-6.3-.3-9.5-.1-17.8 0-35.7-.3-53.5-.1-4.8 1.8-6 6.2-5.8 6.2.3 12.3-.1 18.5.1 3.3.1 4.4-1.2 4.3-4.4-.1-5-.3-10 .1-15 .2-2 1.5-4.5 3.1-5.5 2.8-1.9 4.2-4.1 4.3-7.3 0-.2.1-.3.1-.5-1.1-15.1 6.5-27.2 13.7-39.3 2.3-3.8 3.1-7.6 3.4-12.2 1.3-24.8 3.1-49.5 4.8-74.2.1-1.3.6-2.5.9-3.7.2-.1.6-.1 1 0zM.4 159.4h43.9c3.6 0 3.9 2.4 3.9 5.1 0 11.3.1 22.7.1 34v74c0 7.6 0 7.6 7.8 7.7 12.8.1 25.7.1 38.5.1h6.1V309c0 9.9 0 9.9-10 9.9-28.5 0-57 0-85.5.1-3.7 0-5.2-.9-5.2-5 .1-50 .1-100 .1-150 0-1.3.2-2.6.3-4.6z"/></svg>