<svg fill="#eb6911" xmlns="http://www.w3.org/2000/svg" viewBox="0 0 34.3 6.4"><path d="M11.1 2.1c0-1.1-.8-2-2-2H6.3l.4 1 1.8 5.2h.6l-.8-2.2H9l1.3 2.1h.7L9.7 4c.9-.2 1.4-1 1.4-1.9zm-2 1.5h-1L7 .6h2c.9 0 1.4.7 1.4 1.5.1.8-.5 1.5-1.3 1.5zM3.2.5c1.3 0 2 .7 2.3 1.7H6C5.8 1 4.8 0 3.1 0 1.2 0 0 1.5 0 3.2c0 1.7 1.2 3.2 3.2 3.2 1.4 0 2.5-.8 2.8-1.9h-.6c-.3.8-1.2 1.3-2.1 1.3C1.6 5.8.6 4.6.6 3.1.6 1.8 1.5.5 3.2.5zM19.7.1l-1.8 5.1-.3 1h.6L20.3.1M16.2.1h-.6l1.8 5.1.3-.8M13.9 5.7l-.8-2.4h2.6l-.2-.6h-2.6L12.1.6h2.6l-.2-.5H11.3l.4.9 1.8 5.2h3.1l-.2-.5M21.3.1l.4.9 1.7 5.2h.7L21.9.1M19.3 6.2h.7l1.4-4.3-.3-.8M34.1 5.7h-2.5l-.9-2.4H33.3l-.2-.6H30.5L29.8.6h2.5l-.1-.5H29l.3.9 1.8 5.2H34.3M29 5.7L27 .1h-.6l.4.9 1.8 5.2h1.6l-.2-.5M26.4 5.7L24.5.1h-.6l.3.9L26 6.2H27.7l-.2-.5"/></svg>