<?xml version="1.0" encoding="utf-8"?>
<!-- Generator: Adobe Illustrator 19.1.0, SVG Export Plug-In . SVG Version: 6.00 Build 0)  -->
<svg version="1.1" id="Layer_1" xmlns="http://www.w3.org/2000/svg" xmlns:xlink="http://www.w3.org/1999/xlink" x="0px" y="0px"
	 width="34.3px" height="31.7px" viewBox="-108 57.3 34.3 31.7" enable-background="new -108 57.3 34.3 31.7" xml:space="preserve">
<g>
	<g>
		<g>
			<g>
				<path fill="#FEF8F0" d="M-96.9,71.6c0-1.1-0.8-2-2-2h-2.2h-0.1h-0.5l0.4,1l1.8,5.2h0.6l-0.7-2.1h0.7l1.3,2.1h0.7l-1.4-2.2
					C-97.4,73.3-96.9,72.6-96.9,71.6z M-98.9,73.1h-0.9l-1.1-3h2c0.9,0,1.4,0.7,1.4,1.5C-97.5,72.5-98,73.1-98.9,73.1z"/>
			</g>
			<g>
				<path fill="#FEF8F0" d="M-104.8,70.1c1.3,0,2,0.7,2.3,1.7h0.6c-0.2-1.2-1.2-2.2-2.9-2.2c-1.9,0-3.1,1.5-3.1,3.2
					c0,1.7,1.2,3.2,3.2,3.2c1.4,0,2.5-0.8,2.8-1.9h-0.7c-0.3,0.8-1.1,1.4-2.1,1.4c-1.7,0-2.7-1.2-2.7-2.7
					C-107.4,71.4-106.4,70.1-104.8,70.1z"/>
			</g>
			<g>
				<polygon fill="#FEF8F0" points="-88.3,69.6 -90,74.8 -90.4,75.7 -89.8,75.7 -87.6,69.6 				"/>
			</g>
			<g>
				<polygon fill="#FEF8F0" points="-91.8,69.6 -92.4,69.6 -90.6,74.7 -90.3,73.9 				"/>
			</g>
			<g>
				<polygon fill="#FEF8F0" points="-94.1,75.2 -94.9,72.8 -92.3,72.8 -92.5,72.3 -95.1,72.3 -95.9,70.2 -93.3,70.2 -93.5,69.6 
					-96.4,69.6 -96.4,69.6 -96.7,69.6 -96.3,70.6 -94.5,75.7 -94.5,75.7 -93.9,75.7 -91.4,75.7 -91.6,75.2 				"/>
			</g>
			<g>
				<polygon fill="#FEF8F0" points="-86.7,69.6 -86.3,70.6 -84.5,75.7 -83.9,75.7 -86.1,69.6 				"/>
			</g>
			<g>
				<polygon fill="#FEF8F0" points="-88.7,75.7 -88,75.7 -86.6,71.5 -86.8,70.6 				"/>
			</g>
			<g>
				<polygon fill="#FEF8F0" points="-73.9,75.2 -73.9,75.2 -75.8,75.2 -76.4,75.2 -77.3,72.8 -76.5,72.8 -74.7,72.8 -74.6,72.8 
					-74.8,72.3 -74.8,72.3 -76.7,72.3 -77.4,72.3 -78.2,70.2 -77.4,70.2 -75.7,70.2 -75.6,70.2 -75.8,69.6 -75.8,69.6 -77.6,69.6 
					-78.7,69.6 -78.7,69.6 -79,69.6 -79,69.6 -78.6,70.6 -76.9,75.7 -76.9,75.7 -76.8,75.7 -76.2,75.7 -76.2,75.7 -75.6,75.7 
					-73.7,75.7 -73.7,75.7 				"/>
			</g>
			<g>
				<polygon fill="#FEF8F0" points="-79,75.2 -81,69.6 -81.6,69.6 -81.2,70.6 -79.4,75.7 -79.4,75.7 -78.8,75.7 -77.8,75.7 
					-78,75.2 				"/>
			</g>
			<g>
				<polygon fill="#FEF8F0" points="-81.5,75.2 -83.5,69.6 -84.1,69.6 -83.7,70.6 -82,75.7 -81.9,75.7 -81.3,75.7 -80.3,75.7 
					-80.5,75.2 				"/>
			</g>
		</g>
		<g>
			<path fill="#FEF8F0" d="M-99,67.6c0.4-0.6,0.9-1.2,1.4-1.8c0.4-0.4,0.9-0.8,1.4-1.2l0,0l0,0c0.4,0.3,0.9,0.5,1.4,0.7l0.1,0l0,0.1
				c-0.4,0.6-0.8,1.4-1,2.1h0.2c0.3-0.8,0.6-1.5,1-2.1l0,0l0,0c1.2,0.4,2.5,0.6,3.8,0.7l0.1,0l0,1.5h0.2l0-1.5l0.1,0
				c1.4,0,2.7-0.2,3.8-0.6l0,0l0,0c0.4,0.6,0.7,1.3,1,2.1h0.2c-0.3-0.8-0.6-1.5-1-2.1l0-0.1l0.1,0c0.5-0.2,1-0.4,1.4-0.7l0,0l0,0
				c1.1,0.8,2,1.8,2.7,2.9h0.2c-1.8-3-5.1-4.9-8.8-4.9c-2.7,0-5.3,1.1-7.3,3c-0.6,0.6-1.1,1.2-1.5,1.9H-99z M-88.5,63
				c1.2,0.2,2.4,0.7,3.5,1.4l0.1,0.1l-0.1,0.1c-0.4,0.2-0.8,0.4-1.3,0.6l0,0l0,0c-0.6-0.9-1.3-1.6-2.1-2L-88.5,63z M-90.3,62.9
				c1.3,0.1,2.7,0.9,3.7,2.4l0,0.1l-0.1,0c-1.1,0.4-2.4,0.6-3.7,0.6l-0.1,0L-90.3,62.9L-90.3,62.9z M-90.6,62.8l0,3l-0.1,0
				c-1.3,0-2.5-0.2-3.6-0.6l-0.1,0l0-0.1C-93.3,63.7-92,62.9-90.6,62.8L-90.6,62.8z M-95.9,64.4c1-0.7,2.2-1.1,3.4-1.4l0,0.1
				c-0.8,0.4-1.5,1.1-2.1,2l0,0l0,0c-0.5-0.2-0.9-0.4-1.3-0.6L-95.9,64.4L-95.9,64.4z"/>
		</g>
		<g>
			<path fill="#FEF8F0" d="M-82,77.9c-0.4,0.6-0.9,1.2-1.4,1.8c-0.4,0.4-0.9,0.8-1.4,1.2l0,0l0,0c-0.4-0.3-0.9-0.5-1.4-0.7l-0.1,0
				l0-0.1c0.4-0.6,0.8-1.4,1-2.1h-0.2c-0.3,0.8-0.6,1.5-1,2.1l0,0l0,0c-1.2-0.4-2.5-0.6-3.8-0.7l-0.1,0l0-1.5h-0.2l0,1.5l-0.1,0
				c-1.4,0-2.7,0.2-3.8,0.6l0,0l0,0c-0.4-0.6-0.7-1.3-1-2.1h-0.2c0.3,0.8,0.6,1.5,1,2.1l0,0.1l-0.1,0c-0.5,0.2-1,0.4-1.4,0.7l0,0
				l0,0c-1.1-0.8-2-1.8-2.7-2.9h-0.2c1.8,3,5.1,4.9,8.8,4.9c2.7,0,5.3-1.1,7.3-3c0.6-0.6,1.1-1.2,1.5-1.9H-82z M-92.5,82.4
				c-1.2-0.2-2.4-0.7-3.5-1.4L-96,81l0.1-0.1c0.4-0.2,0.8-0.4,1.3-0.6l0,0l0,0c0.6,0.9,1.3,1.6,2.1,2L-92.5,82.4z M-90.7,82.6
				c-1.3-0.1-2.7-0.9-3.7-2.4l0-0.1l0.1,0c1.1-0.4,2.4-0.6,3.7-0.6l0.1,0L-90.7,82.6L-90.7,82.6z M-90.4,82.6l0-3l0.1,0
				c1.3,0,2.5,0.2,3.6,0.6l0.1,0l0,0.1C-87.7,81.7-88.9,82.5-90.4,82.6L-90.4,82.6z M-85.1,81c-1,0.7-2.2,1.1-3.4,1.4l0-0.1
				c0.8-0.4,1.5-1.1,2.1-2l0,0l0,0c0.5,0.2,0.9,0.4,1.3,0.6L-85.1,81L-85.1,81z"/>
		</g>
	</g>
	<g>
		<path fill="#FEF8F0" d="M-101.7,78.4l-1,0.2l-0.1-0.1l0.9-1l0.1,0.2l-0.7,0.7l1-0.2l0.1,0.1l-0.7,0.7l1-0.2l0.1,0.2l-1.3,0.2
			l-0.1-0.1L-101.7,78.4z"/>
		<path fill="#FEF8F0" d="M-101.4,79.6c0.3-0.2,0.7-0.2,0.9,0.1c0.2,0.3,0.1,0.7-0.2,0.9c-0.3,0.2-0.7,0.2-0.9-0.1
			C-101.8,80.2-101.7,79.8-101.4,79.6z M-100.7,80.5c0.2-0.2,0.3-0.5,0.1-0.7c-0.2-0.2-0.5-0.2-0.7-0.1c-0.2,0.2-0.3,0.5-0.1,0.7
			C-101.3,80.7-101,80.7-100.7,80.5z"/>
		<path fill="#FEF8F0" d="M-99.9,80.6l0.3,0.3c0.2,0.2,0.2,0.5,0,0.6c-0.1,0.1-0.3,0.2-0.5,0.1l-0.1,0.5l-0.1-0.1l0.1-0.5l-0.2-0.2
			l-0.3,0.3l-0.1-0.1L-99.9,80.6z M-99.7,81.4c0.1-0.1,0.1-0.3,0-0.4l-0.2-0.2l-0.4,0.4l0.2,0.2C-100,81.5-99.8,81.5-99.7,81.4z"/>
		<path fill="#FEF8F0" d="M-99.3,82.7l-0.1,0.1l-0.4-0.4l0.9-1l0.1,0.1l-0.8,0.8L-99.3,82.7z"/>
		<path fill="#FEF8F0" d="M-97.9,82.4c0.3,0.3,0.3,0.6,0.2,0.9c-0.2,0.3-0.6,0.4-0.9,0.1l-0.3-0.2l0.8-1L-97.9,82.4z M-98.2,82.4
			l-0.6,0.8l0.2,0.1c0.3,0.2,0.5,0.1,0.7-0.1c0.1-0.2,0.1-0.5-0.1-0.7L-98.2,82.4z"/>
		<path fill="#FEF8F0" d="M-96,83.9l-0.7,0.8l-0.1-0.1l0.2-1.3l0.2,0.1l-0.1,1l0.7-0.8l0.1,0.1l-0.1,1l0.7-0.8l0.2,0.1l-0.9,1
			l-0.1-0.1L-96,83.9z"/>
		<path fill="#FEF8F0" d="M-94.8,84l0.2,0.1l-0.4,1.2l-0.2-0.1L-94.8,84z"/>
		<path fill="#FEF8F0" d="M-93.8,84.3c0.4,0.1,0.6,0.5,0.5,0.8c-0.1,0.3-0.4,0.6-0.8,0.5l-0.4-0.1l0.3-1.2L-93.8,84.3z M-94.1,84.4
			l-0.2,1l0.2,0.1c0.3,0.1,0.5-0.1,0.6-0.4c0.1-0.2-0.1-0.5-0.4-0.6L-94.1,84.4z"/>
		<path fill="#FEF8F0" d="M-92.6,84.7l-0.1,0.4l0.5,0.1l0,0.1l-0.5-0.1l-0.1,0.4l0.5,0.1l0,0.1l-0.7-0.1l0.2-1.3l0.7,0.1l0,0.1
			L-92.6,84.7z"/>
		<path fill="#FEF8F0" d="M-90.3,85l-0.3,1l-0.1,0l-0.5-1.3l0.2,0l0.4,1l0.3-1l0.1,0l0.4,1l0.3-1l0.2,0l-0.4,1.3l-0.1,0L-90.3,85z"
			/>
		<path fill="#FEF8F0" d="M-88.9,84.7l0.1,0.4l0.5-0.1l0,0.1l-0.5,0.1l0.1,0.4l0.5-0.1l0,0.1l-0.7,0.1l-0.2-1.3l0.7-0.1l0,0.1
			L-88.9,84.7z"/>
		<path fill="#FEF8F0" d="M-87.9,84.4l0.4-0.1c0.3-0.1,0.4,0.1,0.5,0.2c0,0.1,0,0.3-0.1,0.3c0.1,0,0.3,0,0.3,0.2
			c0,0.1,0,0.4-0.3,0.5l-0.4,0.1L-87.9,84.4z M-87.4,84.8c0.2,0,0.2-0.2,0.2-0.3c0-0.1-0.1-0.2-0.3-0.1l-0.3,0.1l0.1,0.4L-87.4,84.8
			z M-87.6,85l0.1,0.4l0.3-0.1c0.2,0,0.2-0.2,0.2-0.3c0-0.1-0.1-0.2-0.3-0.1L-87.6,85z"/>
		<path fill="#FEF8F0" d="M-85.7,84.5c0.1,0.2,0.2,0.2,0.4,0.1c0.1-0.1,0.2-0.2,0.1-0.3c-0.1-0.1-0.2-0.1-0.3-0.1
			c-0.2,0-0.4,0-0.5-0.2c-0.1-0.2,0-0.4,0.2-0.5c0.2-0.1,0.4,0,0.5,0.2l-0.2,0.1c-0.1-0.1-0.2-0.2-0.3-0.1c-0.1,0.1-0.2,0.2-0.1,0.3
			c0.1,0.1,0.2,0.1,0.3,0.1c0.2,0,0.4,0,0.6,0.2c0.1,0.2,0,0.4-0.2,0.5c-0.2,0.1-0.5,0-0.6-0.2L-85.7,84.5z"/>
		<path fill="#FEF8F0" d="M-84.8,83.3l0.2,0.4l0.5-0.3l0.1,0.1l-0.5,0.3l0.2,0.4l0.5-0.3l0.1,0.1l-0.6,0.4l-0.7-1.1l0.6-0.4l0.1,0.1
			L-84.8,83.3z"/>
		<path fill="#FEF8F0" d="M-84.1,82.6l0.4-0.3c0.2-0.2,0.5-0.1,0.6,0.1c0.1,0.1,0.1,0.3,0,0.5l0.5,0.2l-0.2,0.1l-0.4-0.2l-0.2,0.2
			l0.2,0.3l-0.1,0.1L-84.1,82.6z M-83.2,82.6c-0.1-0.1-0.3-0.2-0.4-0.1l-0.2,0.2l0.3,0.5l0.2-0.2C-83.1,82.9-83.1,82.7-83.2,82.6z"
			/>
		<path fill="#FEF8F0" d="M-81.9,82.5L-81.9,82.5l-1.3-0.6l0.1-0.1l0.9,0.5l-0.4-1l0.1-0.1L-81.9,82.5z"/>
		<path fill="#FEF8F0" d="M-82.2,81.1l0.1-0.1l0.9,0.9l-0.1,0.1L-82.2,81.1z"/>
		<path fill="#FEF8F0" d="M-80.3,80.2c0.1,0.2,0.2,0.5,0,0.7c-0.3,0.3-0.7,0.3-0.9,0.1c-0.3-0.2-0.4-0.6-0.1-0.9
			c0.2-0.3,0.5-0.3,0.8-0.2l-0.1,0.1c-0.2-0.1-0.4-0.1-0.5,0.1c-0.2,0.2-0.1,0.5,0.1,0.7c0.2,0.2,0.5,0.2,0.7-0.1
			c0.1-0.1,0.1-0.3,0-0.5L-80.3,80.2z"/>
		<path fill="#FEF8F0" d="M-80.6,79.3l0.4,0.2L-80,79l0.1,0.1l-0.3,0.5l0.4,0.2l0.3-0.5l0.1,0.1l-0.4,0.6l-1.1-0.7l0.4-0.6l0.1,0.1
			L-80.6,79.3z"/>
		<path fill="#FEF8F0" d="M-79.4,78.6c0.2,0.1,0.3,0,0.4-0.1c0.1-0.1,0-0.3-0.1-0.3c-0.1-0.1-0.2,0-0.3,0.1
			c-0.2,0.2-0.3,0.3-0.5,0.2c-0.2-0.1-0.2-0.3-0.1-0.5c0.1-0.2,0.3-0.3,0.5-0.2l-0.1,0.2c-0.1-0.1-0.3,0-0.3,0.1
			c-0.1,0.1,0,0.2,0.1,0.3c0.1,0.1,0.2,0,0.3-0.1c0.1-0.1,0.3-0.3,0.5-0.2c0.2,0.1,0.3,0.3,0.2,0.6c-0.1,0.2-0.3,0.3-0.6,0.2
			L-79.4,78.6z"/>
	</g>
	<g>
		<path fill="#FEF8F0" d="M-102.1,81.8l0.3,0.4c0.2,0.3,0.1,0.5,0,0.6c-0.1,0.1-0.3,0.1-0.4,0c0.1,0.1,0.1,0.3-0.1,0.5
			c-0.1,0.1-0.4,0.2-0.6-0.1l-0.3-0.4L-102.1,81.8z M-102.7,82.5l-0.4,0.3l0.2,0.3c0.1,0.2,0.3,0.1,0.4,0c0.1-0.1,0.1-0.2,0-0.4
			L-102.7,82.5z M-102.3,82.6c0.1,0.2,0.3,0.1,0.4,0c0.1-0.1,0.1-0.2,0-0.4l-0.2-0.2l-0.4,0.3L-102.3,82.6z"/>
		<path fill="#FEF8F0" d="M-101.1,82.9l0.4,0.4c0.2,0.2,0.2,0.5,0,0.8c-0.2,0.2-0.4,0.2-0.6,0.1l-0.1,0.6l-0.2-0.2l0.1-0.6l-0.2-0.2
			l-0.3,0.4l-0.1-0.1L-101.1,82.9z M-100.9,83.9c0.1-0.1,0.1-0.3,0-0.5l-0.2-0.2l-0.5,0.5l0.3,0.2C-101.2,84.1-101,84-100.9,83.9z"
			/>
		<path fill="#FEF8F0" d="M-100.6,84.5c0.2-0.3,0.7-0.5,1.1-0.2c0.4,0.3,0.4,0.8,0.2,1.1c-0.2,0.3-0.7,0.5-1.1,0.2
			C-100.8,85.3-100.8,84.9-100.6,84.5z M-99.4,85.3c0.2-0.3,0.2-0.6-0.1-0.9c-0.3-0.2-0.7-0.1-0.8,0.2c-0.2,0.3-0.2,0.6,0.1,0.9
			C-100,85.7-99.6,85.6-99.4,85.3z"/>
		<path fill="#FEF8F0" d="M-98.9,85.7c0.2-0.4,0.7-0.6,1.1-0.3c0.4,0.2,0.5,0.7,0.3,1.1c-0.2,0.4-0.7,0.6-1.1,0.3
			C-99,86.6-99.1,86.1-98.9,85.7z M-97.7,86.4c0.2-0.3,0.1-0.7-0.2-0.8c-0.3-0.2-0.7,0-0.8,0.3c-0.2,0.3-0.1,0.7,0.2,0.8
			C-98.2,86.8-97.8,86.6-97.7,86.4z"/>
		<path fill="#FEF8F0" d="M-96.8,86.8l-0.3,0.7l-0.2-0.1l0.6-1.4l0.2,0.1l-0.3,0.7l0.9-0.4l0.2,0.1l-1,0.5l0.4,1l-0.2-0.1
			L-96.8,86.8z"/>
		<path fill="#FEF8F0" d="M-95,88l-0.1,0.2l-0.7-0.2l0.4-1.5l0.2,0.1l-0.4,1.3L-95,88z"/>
		<path fill="#FEF8F0" d="M-94.4,88.3l-0.2,0l0.4-0.5l-0.4-1l0.2,0.1l0.3,0.8l0.5-0.6l0.2,0L-94.4,88.3z"/>
		<path fill="#FEF8F0" d="M-92.2,88.3l0.1-1.2l0.2,0l-0.2,1.5l-0.2,0l-0.6-1.3l-0.1,1.2l-0.2,0L-93,87l0.2,0L-92.2,88.3z"/>
		<path fill="#FEF8F0" d="M-91.2,88.4c0.1,0,0.2,0.1,0.2,0.2c0,0.2-0.1,0.3-0.3,0.3l0-0.1c0.1,0,0.1,0,0.2-0.1c0,0,0-0.1,0-0.1
			c0,0,0,0-0.1,0c-0.1,0-0.2-0.1-0.2-0.2C-91.4,88.5-91.3,88.4-91.2,88.4z"/>
		<path fill="#FEF8F0" d="M-88.7,88.3l-0.1-1.2l0.2,0l0.2,1.5l-0.2,0l-0.8-1.1l0.1,1.2l-0.2,0l-0.2-1.5l0.2,0L-88.7,88.3z"/>
		<path fill="#FEF8F0" d="M-87.9,87.1l0.1,0.5l0.7-0.1l0,0.2l-0.7,0.1l0.1,0.5l0.7-0.1l0,0.2l-0.8,0.2l-0.3-1.5l0.9-0.2l0,0.2
			L-87.9,87.1z"/>
		<path fill="#FEF8F0" d="M-85.8,86.7l0.1,1.3l-0.1,0.1l-1-1.3l0.2-0.1l0.8,1l-0.1-1.3l0.1-0.1l0.8,1l0-1.3L-85,86l0,1.7l-0.1,0.1
			L-85.8,86.7z"/>
		<path fill="#FEF8F0" d="M-82.9,86.7l-0.2,0.1l0-0.7l-1-0.5l0.2-0.1l0.8,0.4l-0.1-0.8l0.2-0.1L-82.9,86.7z"/>
		<path fill="#FEF8F0" d="M-82.4,85.5c-0.3-0.3-0.2-0.8,0.2-1.1c0.4-0.3,0.9-0.2,1.1,0.2c0.2,0.3,0.2,0.8-0.2,1.1
			C-81.7,85.9-82.1,85.8-82.4,85.5z M-81.3,84.6c-0.2-0.3-0.6-0.4-0.8-0.2c-0.3,0.2-0.3,0.6-0.1,0.9c0.2,0.3,0.6,0.4,0.9,0.2
			C-81.1,85.3-81.1,84.9-81.3,84.6z"/>
		<path fill="#FEF8F0" d="M-81.2,83.6l0.4-0.4c0.2-0.2,0.6-0.2,0.8,0c0.2,0.2,0.2,0.4,0.1,0.6l0.6,0.2l-0.2,0.2l-0.6-0.1l-0.2,0.2
			l0.3,0.4l-0.1,0.1L-81.2,83.6z M-80.2,83.4c-0.1-0.1-0.3-0.2-0.5,0l-0.2,0.2l0.5,0.5l0.2-0.2C-80.1,83.7-80.1,83.5-80.2,83.4z"/>
		<path fill="#FEF8F0" d="M-79.4,82.9l0.5,0.5l-0.1,0.2l-1.2-1l0.1-0.2l0.5,0.5l-0.1-1l0.2-0.2l0.1,1l1.1,0l-0.2,0.2L-79.4,82.9z"/>
	</g>
</g>
<g>
	<path fill="#FEF8F0" d="M-78.2,81.5l-0.2-0.1c0.9-1.3,1.6-2.8,2.1-4.3l0.2,0.1C-76.6,78.6-77.3,80.1-78.2,81.5z"/>
</g>
<g>
	<path fill="#FEF8F0" d="M-103.5,81.5c-0.9-1.3-1.6-2.8-2.1-4.4l0.2-0.1c0.5,1.6,1.1,3,2.1,4.3L-103.5,81.5z"/>
</g>
<g>
	<path fill="#FEF8F0" d="M-105.3,68.3l-0.2-0.1c0.9-2.8,2.5-5.3,4.8-7.2l0.2,0.2C-102.8,63.1-104.4,65.5-105.3,68.3z"/>
</g>
<g>
	<g>
		<path fill="#FEF8F0" d="M-76.4,68.3c-2-6.4-7.8-10.6-14.4-10.6c-0.9,0-1.8,0.1-2.6,0.2c-1.2,0.2-1.1,0.1-1.1,0.1s0.8-0.3,1-0.4
			c0.9-0.2,1.8-0.3,2.8-0.3c6.8,0,12.7,4.3,14.7,10.8L-76.4,68.3z"/>
	</g>
</g>
<g>
	<g>
		<g>
			<g>
				<path fill="#FEF8F0" d="M-100.1,60C-100.1,60-100.1,60-100.1,60l-0.3,0.3c0,0,0,0,0-0.1L-100.1,60z"/>
			</g>
		</g>
	</g>
	<g>
		<path fill="#FEF8F0" d="M-95.6,58.9C-95.6,58.9-95.6,58.9-95.6,58.9c0-0.1,0-0.1,0-0.1c0,0,0,0,0,0l-3.2,1.6c0,0,0,0.1,0.1,0.1
			L-95.6,58.9z"/>
	</g>
	<g>
		<path fill="#FEF8F0" d="M-95.3,57.7C-95.3,57.7-95.3,57.6-95.3,57.7c0-0.1,0-0.1-0.1-0.1c0,0,0,0,0,0l-3.7,2.4c0,0,0,0.1,0.1,0.1
			L-95.3,57.7z"/>
	</g>
	<g>
		<path fill="#FEF8F0" d="M-97.2,57.3l-2.2,2.3c0,0,0.1,0.1,0.1,0.1l2.2-2.3c0,0,0-0.1,0-0.1C-97.2,57.3-97.2,57.3-97.2,57.3
			C-97.2,57.3-97.2,57.3-97.2,57.3z"/>
	</g>
	<g>
		<path fill="#FEF8F0" d="M-100.2,60.8c0.3,0.3,0.5,0.6,0.6,0.5l0.5-0.4c0,0,0,0,0,0l0,0l0.2-0.1l0,0c0.1-0.1,0-0.4-0.3-0.8
			c-0.3-0.3-0.5-0.6-0.6-0.5l-0.2,0.1c0,0,0,0-0.1,0l-0.5,0.4C-100.6,60.2-100.5,60.5-100.2,60.8z M-99.9,59.8L-99.9,59.8
			L-99.9,59.8c0.1,0.1,0.2,0.3,0.4,0.6c0.2,0.2,0.4,0.4,0.5,0.5l-0.6,0.5c-0.1,0-0.3-0.2-0.5-0.5c-0.2-0.3-0.3-0.5-0.3-0.6l0.4-0.3
			l0,0L-99.9,59.8z"/>
	</g>
</g>
</svg>
