<svg xmlns="http://www.w3.org/2000/svg" width="4" height="7.885" viewBox="0 0 3 5.91357"><path d="M2.27.736v-.5c-.057-.05-.307-.12-.678-.12-.368 0-.618.07-.68.12H.904v.5c.13-.07.387-.11.688-.11.3 0 .55.04.68.11m0 .29v-.11c-.06-.05-.31-.12-.68-.12-.29 0-.508.038-.618.088-.01.012-.03.012-.042.02-.008 0-.008.012-.02.012v.11c.13-.07.38-.11.68-.11.3 0 .55.04.68.11m.09.1c0 .118-.34.208-.77.208s-.778-.09-.778-.207l.008-.012-.008-.012V.896h.008C.834.866.814.866.814.834V.236c0-.12.348-.21.778-.21.43 0 .77.09.77.21v.598c0 .03-.01.03 0 .062z"/><path d="M2.213.673c-.02-.007-.05-.02-.07-.02V.217c.03.008.05.008.07.02zM.45 4.908c-.003.035.02.07.056.078.035.004.066-.016.078-.047v-.01l.6-3.5-.13-.022zM1.248 5.87c0 .034.027.07.066.07.032 0 .063-.024.067-.056.005-.003.005-.007.005-.007l.207-4.418c-.032 0-.082 0-.133-.005zM2.693 4.52l-.566-3.116c-.047.016-.094.023-.145.03l.567 3.118c.007.036.046.06.085.05.035-.007.058-.038.058-.073v-.01"/><path d="M2.27.736v-.5c-.057-.05-.307-.12-.678-.12-.368 0-.618.07-.68.12H.904v.5c.13-.07.387-.11.688-.11.3 0 .55.04.68.11m0 .29v-.11c-.06-.05-.31-.12-.68-.12-.368 0-.618.07-.68.12v.11c.13-.07.38-.11.68-.11.3 0 .55.04.68.11m.09.1c0 .118-.34.208-.77.208s-.778-.09-.778-.207v-.23-.661c0-.12.348-.21.778-.21.43 0 .77.09.77.21z"/><path d="M2.213.673c-.02-.007-.05-.02-.07-.02V.217c.03.008.05.008.07.02z"/><path fill="none" d="M-5.588-4.786h8.37V.4h-8.37z"/></svg>