<svg xmlns="http://www.w3.org/2000/svg" viewBox="-527 576.2 57 53.8"><path d="M-511.1 605.4c-10.9.5-10.9 14.9-10.9 22.6h2c0-9.7.7-20.2 9-20.5 3.1-.1 5.6.7 7.5 2.4 2.8 2.6 3.4 6.8 3.5 9.2h-3c-.6 0-1 .4-1 1v3c-3.3 0-5.5-.9-5.6-.9-.5-.2-1.1 0-1.3.5-.2.5 0 1.1.5 1.3.1 0 2.5 1.1 6.3 1.1h.1v3c0 .6.4 1 1 1s1-.4 1-1v-7h3c.6 0 1-.4 1-1 0-2.3-.4-8-4.2-11.6-2.2-2.2-5.2-3.2-8.9-3.1z"/><circle cx="-506.6" cy="615.2" r="1.3"/><path d="M-471 577h-24c-.6 0-1 .4-1 1v16c0 .6.4 1 1 1h11v4h-6c-.6 0-1 .4-1 1s.4 1 1 1h14c.6 0 1-.4 1-1s-.4-1-1-1h-6v-4h11c.6 0 1-.4 1-1v-16c0-.6-.4-1-1-1zm-1 16h-22v-14h22v14zM-471.2 627.4v-4.5c0-.3-.1-.5-.3-.7l-12.4-12.4s0-.1-.1-.1l-.1-.1-3.2-3.2c-.4-.4-1-.4-1.4 0l-4.9 4.9c-.4.4-.4 1 0 1.4l15.9 15.9c.2.2.4.3.7.3h4.5l.9.9c.2.2.5.3.7.3.3 0 .5-.1.7-.3.4-.4.4-1 0-1.4l-1-1zm-16.9-19l1.9 1.9-3.5 3.5-1.9-1.9 3.5-3.5zm14.9 18.4h-3.5l-11.5-11.5 3.5-3.5 11.5 11.5v3.5zM-511 598.2c6.1 0 11-4.9 11-11s-4.9-11-11-11-11 4.9-11 11c0 2.6.9 5 2.4 6.9l-7.2 7.2c-.4.4-.4 1 0 1.4.2.2.5.3.7.3.3 0 .5-.1.7-.3l7.2-7.2c2 1.7 4.5 2.7 7.2 2.7zm-9-11c0-5 4-9 9-9s9 4 9 9-4 9-9 9c-2.2 0-4.2-.8-5.8-2.1-.5-.4-1-.9-1.4-1.4-1.1-1.5-1.8-3.4-1.8-5.5z"/></svg>