<svg fill="#837e7b" xmlns="http://www.w3.org/2000/svg" viewBox="0 0 81.7 42.5"><path d="M17.8 18.7v10.8c0 2.2.8 3.3 2.7 3.3 1.7 0 2.7-.8 3.6-2 .2-.3 2.7 1.4 2.7 4.6 0 4.2-3.8 7.1-9.7 7.1-7.7 0-11.3-3.9-11.3-11.6V18.7h-.7c-3.3 0-5.1-1.5-5.1-4.2v-.7c0-2.9 1.7-4.5 5.1-4.5h.7V6.1c0-4 2-6.1 5.6-6.1h1C15.7 0 18 1.4 18 6.1v3.1"/><path d="M20 13.6c2.2-3 5-5.1 9.6-5.1 5.5 0 8.7 2.6 10 6.5 2.3-3.7 5.2-6.5 10.6-6.5 8.3 0 11.1 5.5 11.1 12.4v14.9c0 4.5-2.3 6.1-5.5 6.1h-1.3c-3.4 0-5.7-1.4-5.7-6.1V23.2c0-3-1.3-4.5-3.8-4.5-1.8 0-3.4 1-4.3 2.3v14.7c0 4.6-2.3 6.1-5.5 6.1H34c-3.4 0-5.7-1.4-5.7-6.1V23.3c0-3.1-1.3-4.6-3.8-4.6-1.8 0-3.4 1-4.3 2.3"/><path d="M60 15c2.3-3.7 5.2-6.5 10.6-6.5 8.3 0 11.1 5.5 11.1 12.4v14.9c0 4.5-2.3 6.1-5.5 6.1h-1.3c-3.4 0-5.7-1.4-5.7-6.1V23.2c0-3-1.3-4.5-3.8-4.5-1.8 0-3.4 1-4.3 2.3L60 15z"/></svg>