<svg fill="#7b7673" xmlns="http://www.w3.org/2000/svg" viewBox="0 0 375 67.2"><path d="M362.7 48.4c-1.2 0-1.9-.3-2.1-1.3V23.9c0-1.5-.1-2.7-.4-3.6-.3-.9-.7-1.7-1.3-2.2-.6-.5-1.4-.9-2.3-1-.9-.2-2-.3-3.3-.3h-18V0h-5.7v47.1h-.1c0 .9-1 1.3-2.1 1.3h-8.9c-1.2 0-1.9-.2-2.3-.6-.3-.4-.5-1.1-.5-2.1V22.2h8.9v-5.4h-8.9V3H310v13.8h-34.3c-1.3 0-2.4.1-3.3.3-.9.2-1.7.5-2.3 1-.6.5-1.1 1.2-1.3 2.2-.3.9-.4 2.1-.4 3.6v22.7c0 .6 0 1.2.1 1.7H263c-1.2 0-2.1-.4-2.1-1.3V23.9c0-1.5-.1-2.7-.4-3.6-.3-.9-.7-1.7-1.3-2.2-.6-.5-1.4-.9-2.3-1-.9-.2-2-.3-3.3-.3h-16.3c-1.3 0-2.4.1-3.3.3-.9.2-1.7.5-2.3 1-.6.5-1.1 1.2-1.3 2.2-.3.9-.4 2.1-.4 3.6v23.2c0 .9-1 1.3-2.1 1.3h-25.7c-1 0-1.8 0-2.4-.1-.6 0-1.1-.2-1.4-.3-.3-.2-.6-.4-.7-.8-.1-.4-.2-.8-.2-1.5v-6.2h18c1.3 0 2.4-.1 3.3-.3.9-.2 1.7-.5 2.3-1 .6-.5 1.1-1.2 1.3-2.2.3-.9.4-2.1.4-3.6V24c0-1.5-.1-2.7-.4-3.6-.3-.9-.7-1.7-1.3-2.2-.6-.5-1.4-.9-2.3-1-.9-.2-2-.3-3.3-.3h-16.3c-1.3 0-2.4.1-3.3.3-.9.2-1.7.5-2.3 1-.6.5-1.1 1.2-1.3 2.2-.3.9-.4 2.1-.4 3.6v22.7c0 .6 0 1.2.1 1.7h-10.6c-1.2 0-1.9-.2-2.3-.6-.3-.4-.5-1-.5-2V0H173v45.8c0 .9-.2 1.6-.5 2-.3.4-1.1.6-2.3.6h-25.4c-1 0-1.8 0-2.4-.1-.6 0-1.1-.2-1.4-.3-.3-.2-.6-.4-.7-.8-.1-.4-.2-.8-.2-1.5v-6.2h18c1.3 0 2.4-.1 3.3-.3.9-.2 1.7-.5 2.3-1 .6-.5 1.1-1.2 1.3-2.2.3-.9.4-2.1.4-3.6V24c0-1.5-.1-2.7-.4-3.6-.3-.9-.7-1.7-1.3-2.2-.6-.5-1.4-.9-2.3-1-.9-.2-2-.3-3.3-.3H130c-1.3 0-2.4.1-3.3.3-.9.2-1.7.5-2.3 1-.6.5-1.1 1.2-1.3 2.2-.1.2-.1.4-.1.6l-8.4 26-8.7-27.3h-.1c-.3-.7-.7-1.2-1.1-1.6-.6-.5-1.4-.9-2.3-1-.9-.2-2-.3-3.3-.3H59.8c-1.2 0-2.2.1-3.1.3-.9.2-1.7.5-2.3 1-.6.5-1.1 1.2-1.3 2.2-.2.6-.3 1.2-.4 2.1l-6 24.7L41 22.2s-.7-3.2-1.5-4c-.8-.8-1.1-1.3-3.1-1.3s-2.5.6-3.2 1.3c-.7.7-1.3 4-1.3 4L26.2 47l-6.3-26.2h-.1c0-.2-.1-.3-.1-.5-.3-.9-.7-1.7-1.3-2.2-.6-.5-1.4-.9-2.3-1-.9-.2-2-.3-3.2-.3H0v5.4h12.5c1.2 0 1.9.3 2.1 1.3l6.6 24.9s.7 3 1.6 3.9c.9.9 1.8 1.4 3.3 1.4 1.4 0 2.6-.4 3.4-1.3.9-.9 1.3-4.1 1.3-4.1L36.2 24l5.6 24.3s.6 3.1 1.6 4.1 2.1 1.3 3.2 1.3 2-.2 3.1-1.3 1.8-4.1 1.8-4.1l6.5-25c.3-.9 1-1.2 2.1-1.2H86c1.2 0 1.9.2 2.3.6.3.4.5 1.1.5 2.1v5.8h-18c-1.3 0-2.4.1-3.3.3-.9.2-1.7.5-2.3 1-.6.5-1.1 1.2-1.3 2.2-.3.9-.4 2.1-.4 3.6v8.9c0 1.5.1 2.7.4 3.6.3.9.7 1.7 1.3 2.2.6.5 1.4.9 2.3 1 .9.2 2 .3 3.3.3h16.3c1.3 0 2.4-.1 3.3-.3.9-.2 1.7-.5 2.3-1 .6-.5 1.1-1.2 1.3-2.2.3-.9.4-2.1.4-3.6V23.9c0-.6 0-1.2-.1-1.7h4.2c1.2 0 1.9.2 2.3.6l8.5 25.6s.8 3.3 1.5 3.9c.6.6 1.8 1.4 3.6 1.4s2.9-.7 3.5-1.3c.6-.6 1.7-4.1 1.7-4.1l8.5-25.6h.1c.3-.4 1.1-.6 2.3-.6h4.1c-.1.5-.1 1.1-.1 1.7v22.7c0 1.5.1 2.7.4 3.6.3.9.7 1.7 1.3 2.2.6.5 1.4.9 2.3 1 .9.2 2 .3 3.3.3h24.4c1.3 0 2.4-.1 3.3-.3.9-.2 1.7-.5 2.3-1 .6-.5 1.1-1.2 1.3-2.2 0-.1.1-.1.1-.2v.2c.3.9.7 1.7 1.3 2.2.6.5 1.4.9 2.3 1 .9.2 2 .3 3.3.3h47.7c1.3 0 2.4-.1 3.3-.3.9-.2 1.7-.5 2.3-1 .6-.5 1.1-1.2 1.3-2.2.3-.9.4-2 .4-3.3V24.9c0-1 .2-1.7.5-2.1.3-.4 1.1-.6 2.2-.6H252c1.2 0 1.9.2 2.3.6.3.4.5 1.1.5 2.1v21.9c0 1.4.2 2.5.4 3.5.3.9.7 1.7 1.3 2.2.6.5 1.4.9 2.3 1 .5.1 1 .2 1.5.2l.1.1v-.1c.5 0 1.1.1 1.7.1h31.1v5.4c0 1-.2 1.7-.5 2.1-.3.4-1.1.6-2.3.6H270v5.4h22c1.3 0 2.4-.1 3.3-.3.9-.2 1.7-.5 2.3-1 .6-.5 1.1-1.2 1.3-2.2.3-.9.4-2.2.4-3.6V23.9c0-.6 0-1.2-.1-1.7h10.6v24.4c0 1.5.1 2.7.4 3.6.3.9.7 1.7 1.3 2.2.6.5 1.4.9 2.3 1 .9.2 2 .3 3.3.3H327.5c1.3 0 2.4-.1 3.3-.3.9-.2 1.7-.5 2.3-1 .6-.5 1.1-1.2 1.3-2.2.3-.9.4-2 .4-3.4l.1-.1V22.2h16.9c1.2 0 1.9.2 2.2.6.3.4.5 1.1.5 2.1v22.4c0 1.2.2 2.2.4 3 .3.9.7 1.7 1.3 2.2.6.5 1.4.9 2.3 1 .5.1 1 .2 1.5.2l.1.1v-.1c.5 0 1.1.1 1.7.1H375v-5.4h-12.3zm-165-22.2v-1.7c0-.5.1-.9.3-1.3.2-.4.4-.6.8-.8.4-.2.9-.3 1.7-.3h14.2c1.2 0 1.9.2 2.3.6.3.4.5 1.1.5 2.1v6.5c0 1-.2 1.7-.5 2.1-.3.4-1.1.6-2.3.6h-16.9v-7.8zM88.8 45.7c0 1-.2 1.7-.5 2.1-.3.4-1.1.6-2.3.6H71.9c-1.2 0-1.9-.2-2.3-.6-.3-.4-.5-1.1-.5-2.1v-7c0-1 .2-1.7.5-2.1.3-.4 1.1-.6 2.3-.6h16.9v9.7zm65.3-23.5h3c1.2 0 1.9.2 2.3.6.3.4.5 1.1.5 2.1v6.5c0 1-.2 1.7-.5 2.1-.3.4-1.1.6-2.3.6h-16.9v-7.9-1.7c0-.5.1-.9.3-1.3.2-.4.4-.6.8-.8.4-.2.9-.3 1.7-.3h11.1zm139.1.6c.3.4.5 1.1.5 2.1v23.5h-17c-1.1 0-1.8-.2-2.1-.6-.3-.4-.5-1.1-.5-2.1V24.9c0-1 .2-1.7.5-2.1.3-.4 1.1-.6 2.3-.6h14c1.2 0 1.9.2 2.3.6z"/></svg>